<?xml version="1.0" encoding="utf-8"?>
<!-- Generator: Adobe Illustrator 16.0.0, SVG Export Plug-In . SVG Version: 6.00 Build 0)  -->
<!DOCTYPE svg PUBLIC "-//W3C//DTD SVG 1.1//EN" "http://www.w3.org/Graphics/SVG/1.1/DTD/svg11.dtd">
<svg version="1.1" id="Layer_1" xmlns="http://www.w3.org/2000/svg" xmlns:xlink="http://www.w3.org/1999/xlink" x="0px" y="0px"
	 width="864px" height="288px" viewBox="0 0 864 288" enable-background="new 0 0 864 288" xml:space="preserve">
<g>
	<g>
		<g>
			<defs>
				<rect id="SVGID_1_" x="0" y="0" width="864" height="288"/>
			</defs>
			<radialGradient id="SVGID_2_" cx="375.4219" cy="-142.6113" r="746.9941" gradientUnits="userSpaceOnUse">
				<stop  offset="0.2688" style="stop-color:#FFFFFF"/>
				<stop  offset="0.5104" style="stop-color:#FBFCFD"/>
				<stop  offset="0.7359" style="stop-color:#F0F4F8"/>
				<stop  offset="0.8288" style="stop-color:#E9EFF4"/>
				<stop  offset="1" style="stop-color:#D8E2EB"/>
			</radialGradient>
			<use xlink:href="#SVGID_1_"  overflow="visible" fill="url(#SVGID_2_)"/>
			<clipPath id="SVGID_3_">
				<use xlink:href="#SVGID_1_"  overflow="visible"/>
			</clipPath>
			<g clip-path="url(#SVGID_3_)">
				<g>
					<g>
						<g>
							
								<radialGradient id="SVGID_4_" cx="619.8701" cy="1597.54" r="651.1383" gradientTransform="matrix(0.7344 -0.9576 0.6788 1.0361 -1037.979 -287.3579)" gradientUnits="userSpaceOnUse">
								<stop  offset="0" style="stop-color:#D5E305"/>
								<stop  offset="0.4731" style="stop-color:#51B800"/>
							</radialGradient>
							<path fill="url(#SVGID_4_)" d="M461.385,181.742c0,0-2.65,4.324-7.837,7.479l-10.499,0.664l4.675-9.425l-10.499,0.664
								l5.824,8.761l-10.499,0.663c-2.955-1.143-6.129-2.856-9.522-5.291c-3.812-2.739-8.046-6.112-12.768-9.471l-14.209-6.885
								l13.067-8.862l-14.208-6.886l1.142,15.748l-14.209-6.885c-4.919-1.097-10.176-1.569-15.798-1.145
								c-8.64,0.665-17.832,3.784-27.697,8.152l-26.105,12.634l2.112-28.925l-26.105,12.634l23.993,16.291l-26.105,12.633
								c-8.65,3.733-17.73,7.143-27.282,9.809c-11.222,3.119-22.311,4.678-33.241,5.156l-33.453-3.455l19.719-27.243l-33.453-3.456
								l13.734,30.699l-33.453-3.456c-11.329-2.172-22.392-4.428-33.152-6.098c-10.248-1.596-19.978-4.994-29.312-9.526
								l-25.576-17.3l27.771-13.5l-25.576-17.3l-2.194,30.8l-25.576-17.301c-8.417-6.533-16.673-12.886-24.896-18.349
								c-8.166-5.41-16.592-7.663-25.099-7.528l-23.938,10.563l2.822-26.013l-23.938,10.563l21.116,15.45l-23.938,10.563
								c-6.858,5.372-13.535,11.399-19.925,17.628c-2.91,2.836-5.752,5.58-8.529,8.183l-9.085,7.542l-1.988-11.639l-9.085,7.541
								l11.073,4.098l-9.085,7.541c-3.59,2.417-7.062,4.3-10.426,5.497c-2.233,0.793-4.42,1.202-6.537,1.291l-6.365-1.713
								l4.666-4.655l-6.365-1.713l1.699,6.368l-6.365-1.713c-1.926-1.167-3.688-2.572-5.249-4.12
								c-4.308-4.284-7.424-7.425-9.482-9.594l7.621,3.992l-7.268,4.604l7.621,3.991l-0.354-8.595l7.621,3.991
								c3.403,2.275,7.189,4.769,11.279,7.377c6.877,4.391,14.506,10.441,22.492,16.896l22.993,16.099l-25.438,11.863l22.993,16.1
								l2.445-27.963l22.994,16.099c9.899,4.421,19.194,5.789,27.112,1.65c8.653-4.55,16.843-11.756,24.854-19.967l22.367-22.835
								l8.593,30.788l22.367-22.835l-30.96-7.953l22.368-22.836c9.249-6.916,18.93-11.281,29.432-10.84
								c10.374,0.464,21.152,4.646,32.816,10.205l31.714,13.645l-27.673,20.643l31.714,13.645l-4.041-34.287l31.714,13.644
								c10.597,2.771,21.95,4.483,34.209,4.409c10.133-0.07,19.981-0.92,29.547-2.289l28.866-6.703l-8.629,28.351l28.866-6.702
								l-20.237-21.648l28.866-6.702c9.911-2.835,19.434-5.611,28.574-7.896c6.713-1.676,13.189-2.883,19.409-3.666l19.675,0.464
								l-10.24,16.808l19.675,0.464l-9.436-17.271l19.675,0.465c6.893,1.355,13.19,3.343,18.839,5.839
								c3.668,1.623,7.126,3.277,10.389,4.884l10.367,4.916l-9.441,6.521l10.368,4.916l-0.927-11.437l10.368,4.916
								c4.203,1.585,7.904,2.426,11.182,2.092c2.797-0.29,5.266-1.315,7.412-2.894l4.327-6.642l3.589,7.068l4.327-6.642
								l-7.916-0.427l4.327-6.642C460.4,187.081,460.999,184.432,461.385,181.742z"/>
							
								<radialGradient id="SVGID_5_" cx="695.9453" cy="669.7979" r="846.2736" gradientTransform="matrix(0.7344 -0.9576 0.6788 1.0361 -1037.979 -287.3579)" gradientUnits="userSpaceOnUse">
								<stop  offset="0" style="stop-color:#D5E305"/>
								<stop  offset="0.4731" style="stop-color:#51B800"/>
							</radialGradient>
							<path fill="url(#SVGID_5_)" d="M461.658,176.512c0,0-0.693,4.292-2.858,9.123l-6.654,6.423l-2.235-8.975l-6.655,6.423
								l8.891,2.552l-6.655,6.423c-2.709,0.67-5.849,0.683-9.48-0.262c-3.438-0.899-7.239-2.973-11.622-5.625l-11.217-6.465
								l11.208-6.482l-11.217-6.465l0.01,12.947l-11.217-6.465c-3.68-1.78-7.65-3.479-11.951-4.985
								c-7.322-2.557-15.749-3.39-25.274-2.724l-24.79,6.055l7.152-24.496l-24.79,6.054l17.638,18.442l-24.79,6.054
								c-7.558,2.731-15.498,5.87-23.816,9.37c-17.528,7.371-34.49,12.543-50.814,15.808l-52.645-2.687l28.649-44.248l-52.646-2.687
								l23.997,46.935l-52.645-2.686c-17.498-5.723-33.5-13.691-47.825-23.176c-5.886-3.902-11.573-8.19-17.122-12.5l-17.256-12.263
								l19.248-8.813l-17.257-12.263l-1.991,21.076l-17.257-12.263c-6.704-3.487-13.389-5.72-20.178-5.926
								c-7.927-0.225-15.657,2.806-23.381,7.986l-18.015,17.407l-6.067-24.305l-18.015,17.407l24.083,6.898l-18.015,17.407
								c-5.456,6.127-11.039,12.458-16.807,18.659c-3.403,3.652-6.714,6.467-9.907,8.598l-12.499,2.412l4.161-12.03l-12.499,2.413
								l8.338,9.617l-12.499,2.413c-5.035-1.347-9.072-3.802-11.815-5.622c-1.622-1.077-2.883-2.012-3.803-2.893l0.047-4.254
								l3.66,2.167l0.047-4.253l-3.707,2.086l0.046-4.253c0.745-1.121,1.691-2.39,2.825-3.86c3.218-4.171,7.129-10.422,11.971-17.94
								l12.521-17.554l8.942,19.62l12.521-17.554l-21.462-2.066l12.521-17.554c4.38-5.343,9.158-10.746,14.377-16.061
								c2.716-2.764,5.577-5.304,8.545-7.515l10.375-4.317l-1.449,11.143l10.375-4.317l-8.926-6.826l10.375-4.317
								c3.716-0.263,7.464,0.213,11.191,1.591c4.279,1.588,8.527,4.225,12.831,7.569L7.369,125.87l-14.304,4.324l10.897,10.226
								l3.407-14.549l10.897,10.226c3.436,3.459,6.976,7,10.652,10.488c7.667,7.267,15.941,12.526,24.63,16.386l29.017,5.699
								L63.12,190.947l29.017,5.699l-9.572-27.979l29.016,5.7c9.938,0.689,19.887,1.238,29.632,2.324
								c9.159,1.028,18.179,3.285,27.064,6.069l26.32,8.829l-20.806,18.38l26.32,8.828l-5.514-27.208l26.32,8.829
								c9.336,2.267,18.515,3.41,27.544,2.455c8.608-0.922,16.94-3.066,24.975-5.991l22.725-11.991l-0.978,25.676l22.725-11.991
								l-21.748-13.685l22.725-11.992c7.754-4.91,15.06-9.654,21.885-13.555c4.03-2.303,7.823-4.329,11.368-6.16l11.427-6.035
								l-0.487,12.914l11.427-6.035l-10.94-6.879l11.428-6.035c4.148-2.676,7.238-5.445,9.185-8.909
								c1.066-1.897,2.623-1.799,4.597-0.682l4.241,3.253l-4.938,2.046l4.241,3.253l0.697-5.299l4.241,3.253
								c1.4,1.065,2.88,2.102,4.433,2.994c2.166,1.241,4.59,1.862,7.177,2.056l7.433-0.976l-2.872,6.925l7.433-0.976l-4.562-5.949
								l7.433-0.976c2.456-0.616,4.901-1.293,7.276-1.908c5.658-1.463,10.91-1.871,15.467-1.103l8.432,11.451l-14.132,1.577
								l8.432,11.45l5.7-13.027l8.433,11.45C463.447,165.482,462.92,170.634,461.658,176.512z"/>
							
								<radialGradient id="SVGID_6_" cx="704.4648" cy="812.8955" r="773.804" gradientTransform="matrix(0.7344 -0.9576 0.6788 1.0361 -1037.979 -287.3579)" gradientUnits="userSpaceOnUse">
								<stop  offset="0" style="stop-color:#D5E305"/>
								<stop  offset="0.4731" style="stop-color:#51B800"/>
							</radialGradient>
							<path fill="url(#SVGID_6_)" d="M450.62,176.719c0,0,1.655,3.04,3.108,7.688l1,8.189l-7.592-3.229l1,8.189l6.592-4.961
								l1,8.189c-0.255,2.675-0.853,5.392-1.929,8.047c-0.794,1.947-1.911,3.768-3.407,5.262l-5.801,1.905l1.25-5.977l-5.801,1.905
								l4.551,4.071l-5.801,1.905c-1.866-0.148-3.918-0.555-6.169-1.268c-4.245-1.35-9.064-4.317-14.796-8.052l-14.518-8.606
								l14.712-8.27l-14.517-8.606l-0.195,16.876l-14.517-8.607c-4.781-2.305-9.965-4.497-15.606-6.44
								c-8.799-3.021-18.391-3.71-28.625-2.841l-28.072,6.919l8.044-27.771l-28.073,6.919l20.029,20.852l-28.073,6.92
								c-8.99,2.939-18.199,6.026-27.564,8.931c-10.078,3.119-20.279,5.019-30.533,5.985l-31.044-1.593l16.901-26.089l-31.044-1.593
								l14.143,27.682l-31.044-1.593c-10.331-1.657-20.565-3.681-30.627-5.771c-5.048-1.051-10.08-2.233-15.064-3.61l-14.457-5.496
								l11.988-9.772l-14.457-5.496l2.469,15.269l-14.457-5.497c-4.544-2.323-8.987-4.946-13.301-7.924
								c-4.369-3.019-8.592-6.41-12.725-9.93l-12.284-10.473l15.212-5.402l-12.284-10.473l-2.928,15.875L43.03,148.485
								c-4.518-3.396-9.072-6.318-13.746-8.412c-5.125-2.287-10.508-2.771-16.01-1.682l-13.691,8.522l-0.535-16.118l-13.692,8.521
								l14.227,7.597l-13.691,8.521c-3.586,3.671-7.123,7.85-10.572,12.475c-3.905,5.24-7.641,10.785-11.249,16.303l-11.234,16.295
								l-8.495-17.876l-11.234,16.295l19.729,1.581l-11.234,16.296c-5.354,6.248-10.604,10.427-15.932,11.042
								c0,0-0.188-1-0.131-3.128l0.322-3.119l2.541,1.839l0.321-3.119l-2.862,1.28l0.322-3.118c0.156-0.951,0.347-1.978,0.58-3.084
								c0.921-4.371,2.224-9.964,4.058-16.619l5.375-16.236l11.374,12.773l5.375-16.237l-16.749,3.464l5.375-16.236
								c1.935-5.034,4.088-10.32,6.485-15.832c2.414-5.545,5.179-10.953,8.226-15.884l13.175-11.337l3.231,17.079l13.175-11.337
								l-16.406-5.741l13.175-11.337c5.345-0.763,10.877,0.819,16.423,5.562c2.995,2.565,5.996,5.677,9.11,9.038l8.972,9.175
								l-12.431,3.183l8.972,9.175l3.459-12.357l8.972,9.175c3.206,2.785,6.62,5.383,10.305,7.619
								c4.308,2.609,9.097,4.244,14.284,4.998l15.009-1.736l-6,13.866l15.009-1.737l-9.009-12.129l15.009-1.737
								c4.61-1.46,9.356-3.301,14.206-5.485c5.382-2.425,10.7-4.767,15.938-6.861l16.742-4.235l-4.704,16.617l16.743-4.235
								l-12.039-12.381l16.743-4.235c5.882-0.219,11.585,0.49,17.077,2.431c5.243,1.86,10.259,4.575,15.123,7.82l13.143,10.865
								l-15.98,5.949l13.143,10.865l2.838-16.814l13.143,10.865c4.306,3.862,8.602,7.654,12.95,11.1
								c8.197,6.487,16.784,10.263,25.588,12.018l27.79-4.404l-10.082,26.269l27.79-4.403l-17.708-21.865l27.79-4.403
								c8.842-3.583,17.551-7.749,25.963-11.836c6.771-3.286,13.41-5.649,19.854-7.206l20.901,0.469l-10.856,17.867l20.901,0.469
								l-10.045-18.336l20.902,0.469c7.024,2.169,13.416,5.301,19.021,9.098c2.195,1.488,4.309,2.988,6.351,4.455l6.378,4.414
								l-7.011,3.316l6.378,4.413l0.633-7.729l6.378,4.413c2.375,1.454,4.666,2.667,6.896,3.528
								c2.122,0.817,4.262,1.167,6.367,1.016l5.512-3.104l-0.067,6.325l5.512-3.104l-5.444-3.222l5.512-3.104
								C448.264,180.588,449.482,178.801,450.62,176.719z"/>
							
								<radialGradient id="SVGID_7_" cx="642.916" cy="-90.8853" r="1628.098" gradientTransform="matrix(0.7344 -0.9576 0.6788 1.0361 -1037.979 -287.3579)" gradientUnits="userSpaceOnUse">
								<stop  offset="0" style="stop-color:#D5E305"/>
								<stop  offset="0.4731" style="stop-color:#51B800"/>
							</radialGradient>
							<path fill="url(#SVGID_7_)" d="M454.801,201.968c0,0-0.231,2.408-1.561,5.397l-3.635,4.195l-1.816-5.244l-3.634,4.195
								l5.45,1.049l-3.635,4.195c-1.473,0.89-3.189,1.636-5.188,2.156c-5.138,1.326-11.739-0.829-21.088-4.615l-20.49-7.737
								l16.946-13.876l-20.49-7.738l3.544,21.614l-20.49-7.738c-6.418-1.983-13.445-3.916-21.155-5.692
								c-14.148-3.24-30.043-2.57-47.003-0.264l-46.645,7.415l16.9-44.103l-46.644,7.416l29.744,36.687l-46.644,7.416
								c-15.872,1.042-31.667,0.435-46.961-3.237c-7.719-1.859-15.265-4.58-22.666-7.718L125.973,185.5l19.703-13.644
								l-21.667-10.241l1.964,23.885l-21.667-10.241c-7.658-3.33-15.207-6.074-22.685-7.633c-8.628-1.786-17.165-0.399-25.559,3.333
								l-19.905,16.732l-4.539-25.604L11.714,178.82l24.444,8.871l-19.905,16.733c-5.504,6.478-10.898,13.449-16.167,20.624
								c0,0,1.148-2.047,3.463-5.851l3.626-5.751l3.168,6.016l3.625-5.751l-6.793-0.265l3.626-5.752
								c1.151-1.771,2.396-3.666,3.736-5.676c2.507-3.761,5.27-7.978,8.32-12.238l10.063-10.764l4.29,14.096l10.063-10.764
								l-14.353-3.332l10.063-10.764c4.085-2.914,8.496-5.162,13.263-6.374c5.19-1.31,10.722-0.409,16.651,1.931l14.614,8.707
								l-14.847,8.303l14.614,8.707l0.232-17.01l14.614,8.706c4.539,3.081,9.267,6.278,14.198,9.399
								c6.58,4.16,13.725,7.781,21.409,10.832l23.338,5.363l-16.314,17.529l23.337,5.363l-7.023-22.893l23.337,5.364
								c7.687,0.708,15.691,1.007,24,0.877c8.911-0.144,17.545-1.039,25.917-2.462l25.043-7.068l-6.4,25.223l25.043-7.068
								l-18.643-18.154l25.043-7.068c8.452-3.074,16.584-6.217,24.417-9.078c5.898-2.154,11.597-3.983,17.091-5.483l17.715-2.532
								l-6.664,16.607l17.715-2.532l-11.051-14.075l17.715-2.533c6.35,0.107,12.273,0.889,17.754,2.354
								c6.932,1.859,13.33,4.272,19.263,6.883l18.457,8.83l-16.875,11.568l18.457,8.83l-1.582-20.398l18.457,8.83
								C442.611,206.168,448.98,206.295,454.801,201.968z"/>
						</g>
						<g>
							
								<radialGradient id="SVGID_8_" cx="60.5117" cy="2011.3574" r="797.9039" gradientTransform="matrix(0.5132 -1.2109 0.8583 0.724 -1006.0173 -692.2085)" gradientUnits="userSpaceOnUse">
								<stop  offset="0.043" style="stop-color:#FFC800"/>
								<stop  offset="0.6129" style="stop-color:#FF6C00"/>
								<stop  offset="1" style="stop-color:#FF3400"/>
							</radialGradient>
							<path fill="url(#SVGID_8_)" d="M433.072,132.572c0,0-1.063,1.638-3.23,3.664l-4.076,2.664l-0.27-4.862l-4.076,2.664
								l4.345,2.198l-4.076,2.665c-1.414,0.605-2.961,1.128-4.646,1.518c-3.494,0.804-7.531-0.167-12.076-2.664l-9.703-8.037
								l11.812-4.385l-9.703-8.037l-2.108,12.422l-9.703-8.037c-2.752-2.83-5.611-5.936-8.571-9.292
								c-2.083-2.359-4.267-4.74-6.562-7.023l-7.611-5.808l8.836-3.688l-7.612-5.809l-1.224,9.496l-7.612-5.809
								c-2.867-1.466-5.873-2.578-9.03-3.206c-3.729-0.739-7.69-0.718-11.843-0.063L323.18,97.16l2.097-11.667l-11.153,4.018
								l9.056,7.649l-11.153,4.018c-3.389,1.754-6.843,3.73-10.348,5.88c-4.307,2.643-8.647,5.446-13.036,8.226l-13.481,7.437
								l0.3-15.393l-13.48,7.437l13.181,7.956l-13.48,7.437c-4.81,2.017-9.7,3.61-14.688,4.572
								c-4.888,0.939-9.837,1.051-14.834,0.501l-14.147-4.447l10.924-10.029l-14.147-4.446l3.223,14.475l-14.147-4.447
								c-4.377-2.09-8.771-4.441-13.174-6.952c-5.27-3.006-10.543-5.829-15.818-8.409l-16.746-6.273l13.806-11.366l-16.746-6.273
								l2.94,17.639l-16.746-6.273c-5.895-1.433-11.786-2.401-17.672-2.823c-5.469-0.39-10.912-0.555-16.305-0.69l-16.269-1.093
								l9.081-13.543l-16.269-1.092l7.188,14.635l-16.269-1.092c-5.373-0.896-10.63-2.209-15.743-4.171
								C48.899,84.623,39.453,78.226,30.5,70.643L6.43,46.752l32.725-8.9l-24.07-23.89L6.43,46.752l-24.07-23.89
								c-9.172-8.412-18.41-15.207-28.125-18.538c-8.907-3.034-17.808-3.278-26.646-1.721l-24.602,10.768l2.976-26.689
								L-118.639-2.55l21.626,15.921l-24.602,10.769c-8.085,4.652-16.009,9.233-23.721,12.857
								c-6.116,2.87-12.121,4.955-17.975,6.372l-18.939,0.257l9.248-16.53l-18.939,0.256l9.692,16.274l-18.939,0.256
								c-6.488-1.394-12.554-3.473-18.107-5.975c-6.425-2.898-11.653-5.05-15.807-6.498l-1.826,8.416l-6.375-5.79l-1.826,8.416
								l8.202-2.626l-1.826,8.416c2.962,3.948,6.521,8.453,10.535,13.461c2.977,3.711,6.279,7.564,9.857,11.268l11.911,8.934
								l-13.692,5.848l11.911,8.935l1.782-14.782l11.911,8.934c4.636,2.086,9.467,3.404,14.438,3.63
								c5.485,0.242,11.085-0.8,16.709-2.735l14.824-8.271l-0.25,16.973l14.824-8.271l-14.574-8.702l14.823-8.271
								c4.669-3.333,9.237-6.814,13.644-10.193c4.056-3.108,8.112-6.109,12.165-8.875l13.38-6.767l-0.829,14.971l13.38-6.767
								l-12.551-8.204l13.38-6.768c4.988-1.382,9.958-1.971,14.9-1.526c4.97,0.454,9.886,2.042,14.786,4.499l12.414,9.272
								l-14.237,6.114L-40.9,70.22l1.823-15.387l12.414,9.272c3.672,3.427,7.372,7.086,11.115,10.868
								c4.139,4.181,8.429,8.407,12.889,12.41l14.879,9.754l-15.887,8.009l14.879,9.754l1.008-17.763l14.879,9.754
								c5.588,2.089,11.411,3.293,17.491,3.286c7-0.018,14.192-1.767,21.636-4.382l20.515-8.404l-2.979,21.969l20.515-8.404
								L86.741,97.392l20.515-8.404c6.896-2.462,14.023-4.511,21.413-5.68c11.319-1.771,21.818,1.582,31.798,7.689l24.712,22.416
								l-31.769,10.194l24.712,22.416l7.056-32.609l24.713,22.415c9.031,8.415,18.071,15.435,27.417,18.729
								c9.346,3.266,18.622,2.445,27.797-0.754l23.934-15.029l1.048,28.242l23.934-15.029l-24.982-13.212l23.934-15.029
								c8.254-5.919,16.364-11.239,24.301-14.5c6.154-2.518,12.005-3.011,17.544-2.096l15.105,9.092l-15.427,8.536l15.105,9.092
								l0.322-17.628l15.105,9.093c4.526,4.388,8.677,8.931,12.442,12.869c2.889,3.018,5.821,5.14,8.723,6.468l10.119-1.745
								l-3.548,9.635l10.119-1.745l-6.57-7.89l10.118-1.745C428.954,138.923,431.201,136.007,433.072,132.572z"/>
							
								<radialGradient id="SVGID_9_" cx="142.7178" cy="657.4424" r="1209.8297" gradientTransform="matrix(0.5132 -1.2109 0.8583 0.724 -1006.0173 -692.2085)" gradientUnits="userSpaceOnUse">
								<stop  offset="0.043" style="stop-color:#FFC800"/>
								<stop  offset="0.6129" style="stop-color:#FF6C00"/>
								<stop  offset="1" style="stop-color:#FF3400"/>
							</radialGradient>
							<path fill="url(#SVGID_9_)" d="M436.323,125.41c0,0-0.735,1.763-2.406,4.372l-3.126,3.884l-1.801-4.65l-3.126,3.884
								l4.927,0.766l-3.127,3.884c-1.112,1.116-2.343,2.241-3.702,3.342c-2.418,1.955-5.423,3.155-8.855,3.322l-8.75-3.47
								l7.38-5.843l-8.75-3.471l1.37,9.313l-8.75-3.471c-2.261-1.82-4.573-4.031-6.915-6.672
								c-3.795-4.283-8.134-9.026-12.988-13.425l-16.496-7.91l15.099-10.332l-16.497-7.91l1.398,18.241l-16.496-7.91
								c-5.695-0.168-11.723,1.012-18.068,4.03c-8.584,4.097-17.564,9.658-26.809,15.278l-28.275,11.571l4.117-30.272l-28.275,11.57
								l24.158,18.702l-28.275,11.57c-9.772,0.428-19.555-1.837-29.22-8.195c-4.762-3.139-9.354-6.578-13.833-10.106l-13.44-10.625
								l15.922-6.327l-13.44-10.625l-2.481,16.952l-13.44-10.625c-4.873-3.451-9.754-6.458-14.729-8.708
								c-4.335-1.957-8.712-3.34-13.103-4.26l-13.738-0.363l7.184-11.716l-13.738-0.363l6.554,12.079l-13.738-0.363
								c-4.59,0.556-9.136,1.367-13.606,2.304c-8.212,1.721-16.245,2.84-24.041,3.237l-23.573-4.495l15.68-18.167l-23.573-4.495
								l7.894,22.663L33.25,87.11c-6.958-3.577-13.49-8.287-19.522-14.278C8.009,67.146,2.504,61.222-2.879,55.396L-20.176,38.7
								l23.107-6.632l-17.297-16.696l-5.81,23.328l-17.297-16.696c-7.024-5.044-14.186-8.626-21.7-9.962
								c-7.623-1.342-15.357-0.489-23.236,1.903l-20.671,11.07l0.748-23.436l-20.67,11.07l19.922,12.366l-20.67,11.071
								c-6.349,4.29-12.812,8.821-19.402,13.318c-4.209,2.87-8.176,5.23-11.897,7.152l-13.249,3.685l3.434-13.316l-13.249,3.684
								l9.815,9.632l-13.249,3.685c-6.285-0.151-10.603-2.098-12.894-4.309c-1.779-1.723-2.574-3.307-2.466-4.791l4.042-3.468
								l0.981,5.234l4.042-3.467l-5.024-1.768l4.042-3.467c1.536-0.651,3.278-1.293,5.215-1.932
								c4.289-1.413,9.59-3.216,15.817-5.584l15.363-6.721l-1.86,16.665l15.363-6.721l-13.502-9.944l15.363-6.722
								c4.719-2.334,9.682-4.91,14.872-7.759c7.347-4.032,15.23-8.734,23.509-13.206l25.367-8.416l-5.396,26.176l25.366-8.416
								l-19.971-17.76l25.366-8.416c8.686-0.293,17.48,1.125,26.265,4.996C-11.913-1.538-2.707,5.263,6.219,13.286l23.839,24.208
								l-32.884,8.542l23.839,24.208l9.045-32.75l23.839,24.208c8.718,8.2,17.665,15.369,27.114,20.308
								c8.321,4.338,16.773,7.757,25.258,10.628l26.472,7.149l-19.427,19.351l26.472,7.148l-7.045-26.5l26.472,7.149
								c8.925,2.416,17.648,5.111,26.042,8.566c7.898,3.251,15.817,5.57,23.7,6.91l24.3-2.453l-10.026,22.271l24.3-2.453
								l-14.274-19.818l24.3-2.453c7.366-2.923,14.581-6.891,21.589-11.946c5.202-3.755,10.345-7.292,15.341-10.48l16.786-7.706
								l-1.719,18.39l16.785-7.706l-15.066-10.684l16.786-7.706c7.261-1.202,13.079,0.21,16.773,5.224
								c1.385,1.883,2.73,3.854,4.064,5.805l4.338,5.588l-7.008,0.963l4.338,5.588l2.67-6.551l4.338,5.588
								c1.845,1.789,3.776,3.159,5.859,3.877c2.011,0.689,4.123,0.78,6.289,0.416l5.751-2.624l-0.603,6.292l5.75-2.624l-5.147-3.668
								l5.75-2.624c1.718-1.174,3.42-2.474,5.085-3.832c3.548-2.896,6.938-5.765,10.179-8.526l10.308-8.361l2.088,13.107
								l10.307-8.362l-12.395-4.745l10.307-8.362c4.217-2.944,8.103-5.11,11.698-6.157c7.851-2.271,14.025-0.6,17.61,4.465
								l-0.917,18.811l-15.832-10.2l-0.918,18.811l16.75-8.611l-0.918,18.811C442.491,113.209,439.764,119.104,436.323,125.41z"/>
							
								<radialGradient id="SVGID_10_" cx="125.7939" cy="881.9971" r="1041.0948" gradientTransform="matrix(0.5132 -1.2109 0.8583 0.724 -1006.0173 -692.2085)" gradientUnits="userSpaceOnUse">
								<stop  offset="0.043" style="stop-color:#FFC800"/>
								<stop  offset="0.6129" style="stop-color:#FF6C00"/>
								<stop  offset="1" style="stop-color:#FF3400"/>
							</radialGradient>
							<path fill="url(#SVGID_10_)" d="M425.361,125.879c0,0-0.207,3.769-1.11,8.344l-3.566,7.43l-4.651-6.803l-3.566,7.43
								l8.218-0.626l-3.566,7.431c-2.101,1.428-4.726,1.732-8.003,0.142c-2.497-1.22-5.142-3.94-8.286-7.428l-7.824-7.98
								l10.823-2.786l-7.824-7.979l-2.999,10.766l-7.824-7.98c-2.717-2.286-5.711-4.518-9.037-6.581
								c-5.764-3.566-12.893-4.514-21.286-3.365l-20.567,7.529l3.763-21.577l-20.567,7.529l16.804,14.047l-20.567,7.529
								c-6.15,3.108-12.614,6.602-19.377,10.402c-4.308,2.418-8.667,4.597-13.049,6.434l-14.123,3.058l4.414-13.76l-14.123,3.058
								l9.709,10.702l-14.123,3.058c-4.829-0.108-9.6-0.912-14.27-2.55c-4.901-1.726-9.687-4.264-14.417-7.332l-12.702-10.052
								l15.056-5.974l-12.702-10.053l-2.354,16.026l-12.702-10.052c-4.091-3.513-8.223-7.038-12.434-10.394
								c-8.531-6.792-17.654-10.952-27.18-13.466l-30.41-1.621l16.609-25.525l-30.41-1.621l13.801,27.146l-30.41-1.621
								c-10.205,0.107-20.425-0.118-30.479-1.614c-10.892-1.639-21.173-6.996-31.151-14.27l-25.7-23.131l32.882-10.691l-25.7-23.131
								l-7.182,33.823l-25.7-23.131c-9.284-7.953-18.776-14.796-28.732-19.027c-11.533-4.872-23.408-3.981-35.622,0.431
								l-30.674,19.575l-1.614-36.352l-30.674,19.574l32.289,16.778l-30.674,19.574c-9.785,7.322-19.749,14.604-29.889,20.951
								c0,0,2.648-5.141,9.572-13.77l11.566-12.148l4.737,16.091l11.566-12.147l-16.304-3.943l11.566-12.148
								c3.833-3.491,8.067-7.148,12.736-10.938c4.805-3.899,10.062-8.042,15.829-12.15l17.365-9.745l-0.243,19.911l17.365-9.746
								L-91.46,5.271l17.364-9.746c5.945-2.423,12.254-4.533,18.953-6.201c8.749-2.17,18.192-2.826,28.257-1.761l26.524,9.674
								l-21.64,18.134l26.524,9.674L-0.361-2.762l26.524,9.674c7.582,4.559,15.368,9.957,23.34,16.248
								c16.152,12.754,31.97,24.505,47.443,35.028l52.735,25.727l-48.648,32.806l52.735,25.728l-4.087-58.534l52.735,25.727
								c20.3,4.892,39.807,5.935,58.49,2.407c7.656-1.455,15.238-3.8,22.703-6.397l22.528-6.898l-5.29,22.959l22.528-6.898
								l-17.238-16.061l22.528-6.898c8.044-1.006,15.795-0.485,23.182,2.626c3.586,1.518,6.991,3.682,10.273,6.278l8.506,8.548
								l-11.655,3.093l8.506,8.548l3.149-11.641l8.506,8.547c2.662,3.025,5.317,6.084,8.006,9.035
								c2.665,2.923,5.597,5.312,8.696,7.001l10.653-0.229L401.36,143l10.653-0.23l-5.525-9.11l10.653-0.23
								C419.937,131.684,422.697,129.199,425.361,125.879z"/>
							
								<radialGradient id="SVGID_11_" cx="93.2114" cy="-522.3867" r="2424.0601" gradientTransform="matrix(0.5132 -1.2109 0.8583 0.724 -1006.0173 -692.2085)" gradientUnits="userSpaceOnUse">
								<stop  offset="0.043" style="stop-color:#FFC800"/>
								<stop  offset="0.6129" style="stop-color:#FF6C00"/>
								<stop  offset="1" style="stop-color:#FF3400"/>
							</radialGradient>
							<path fill="url(#SVGID_11_)" d="M414.116,149.516c0,0-2.152-0.799-7.201-4.466l-6.558-5.404l7.959-2.978l-6.559-5.403
								l-1.4,8.381l-6.558-5.404c-1.921-1.729-3.997-3.65-6.233-5.781c-2.644-2.516-5.769-4.913-9.315-6.871l-11.188-2.266
								l7.556-8.557l-11.188-2.266l3.633,10.822l-11.189-2.265c-3.561,0.424-7.292,1.389-11.168,3.019
								c-6.098,2.572-12.368,6.562-18.911,11.13l-18.271,12.184l-1.416-21.916l-18.271,12.184l19.687,9.731l-18.271,12.184
								c-6.483,3.412-13.275,6.229-20.436,7.961c-8.377,2.014-16.805,0.422-25.305-3.648l-20.148-16.374l24.254-9.262
								l-20.148-16.374l-4.106,25.636l-20.148-16.374c-5.925-6.106-11.897-12.54-17.925-18.956
								c-6.662-7.082-13.972-12.182-21.743-15.594l-26.408-1l14.07-22.37l-26.408-1l12.337,23.37l-26.408-1
								c-8.399,2.219-16.867,5.402-25.246,9.304c-4.131,1.923-8.263,3.726-12.375,5.314l-13.038,3.164l3.779-12.873l-13.038,3.164
								l9.259,9.709l-13.038,3.164c-4.554,0.26-9.025-0.042-13.382-1.052c-4.37-1.018-8.632-2.734-12.795-4.979L9.915,97.211
								l12.655-5.329l-10.943-8.295L9.915,97.211l-10.943-8.294c-3.304-3.123-6.543-6.409-9.723-9.749
								c-3.185-3.346-6.324-6.692-9.439-9.944l-9.996-9.366l13.108-3.974l-9.996-9.365l-3.112,13.339l-9.996-9.366
								c-3.808-2.943-7.649-5.439-11.563-7.315c-3.435-1.642-6.954-2.737-10.513-3.326l-10.877,1.165l4.43-10.003l-10.878,1.165
								l6.448,8.838l-10.878,1.165c-3.369,1.24-6.691,2.866-9.927,4.845c0,0,5.507-4.733,14.817-7.276l16.202,1.578l-9.467,13.243
								l16.202,1.578l-6.735-14.821l16.202,1.578c4.503,2.061,9.223,4.9,14.108,8.718c5.026,3.934,10.205,8.767,15.659,13.876
								l16.206,13.178l-19.516,7.446L-4.056,99.3l3.309-20.624l16.207,13.178c5.957,3.589,12.292,6.543,19.086,8.447
								c8.039,2.241,16.607,2.042,25.652,0.65l25.213-5.694l-7.676,24.683l25.213-5.694L85.411,95.258l25.213-5.693
								c8.347-1.441,16.933-2.287,25.733-1.912c9.301,0.412,17.919,3.358,26.05,7.765l21.431,17.004l-25.442,10.058l21.431,17.004
								l4.011-27.062l21.431,17.005c7.434,6.467,14.737,12.252,22.145,16.056c6.848,3.504,13.774,4.977,20.709,4.951l20.175-6.711
								l-4.276,20.827l20.175-6.71l-15.899-14.117l20.175-6.71c6.194-3.566,12.278-7.521,18.197-11.446
								c4.892-3.242,9.722-6.199,14.452-8.766l15.945-5.141l-3.52,16.379l15.945-5.141l-12.425-11.238l15.945-5.141
								c5.842-0.114,11.277,1.128,16.187,4.044c4.147,2.472,7.965,5.818,11.595,9.522l10.191,11.05l-14.666,3.301l10.191,11.051
								l4.475-14.352l10.191,11.051C405.278,145.873,409.512,148.609,414.116,149.516z"/>
						</g>
						<g>
							<path fill="#FFFFFF" d="M-188.983,126.675c2.345,0.762,4.885,1.199,7.58,1.287l7.536-1.389l-2.565,7.221l7.536-1.389
								l-4.971-5.832l7.536-1.389c2.286-0.876,4.616-1.965,6.976-3.277c2.666-3.276,5.968-7.359,9.931-12.111l10.316-11.782
								l5.045,14.825l10.316-11.782l-15.362-3.043l10.316-11.782c3.358-3.645,6.944-7.446,10.763-11.378
								c4.55-4.684,9.512-9.319,14.771-13.454l18.09-7.633l-2.435,19.483l18.09-7.633l-15.655-11.85l18.09-7.633
								c6.324-0.023,12.712,1.559,19.033,5.274c7.603,2.882,15.67,9.575,24.558,17.337L1.27,85.702l-27.064,12.962l24.758,16.957
								L1.27,85.702l24.758,16.957c9.118,3.185,18.988,4.598,29.753,3.136c6.182-0.849,12.267-2.344,18.268-4.151l17.762-6.001
								l-3.684,18.383l17.762-6.001L91.811,95.643l17.762-6.001c6.172-1.821,12.281-3.214,18.345-3.757
								c5.676-0.503,11.262-0.075,16.727,1.122l15.071,7.212l-13.782,9.446l15.071,7.213l-1.289-16.659l15.071,7.213
								c4.456,3.262,8.759,6.905,12.886,10.808c4.113,3.892,8.13,7.871,12.089,11.781l12.51,11.312l-16.051,5.178l12.51,11.313
								l3.541-16.491l12.51,11.312c4.767,3.547,9.577,6.491,14.503,8.547c4.388,1.826,8.862,2.892,13.379,3.317l13.573-2.035
								l-5.024,12.772l13.573-2.035l-8.549-10.737l13.573-2.035c4.269-1.536,8.501-3.424,12.661-5.559
								c3.487-2.826,6.841-5.751,10.075-8.719l9.464-9.378l3.39,12.885l9.464-9.378l-12.854-3.507l9.464-9.378
								c3.2-3.325,6.278-6.547,9.255-9.583c1.777-1.813,3.478-3.534,5.102-5.148l5.349-4.885l1.557,7.074l5.349-4.886l-6.905-2.188
								l5.348-4.886c2.347-1.829,4.412-3.106,6.188-3.711c2.329-0.781,4.627,1.125,7.035,4.11l5.217,6.894l-8.579,1.071l5.217,6.894
								l3.362-7.965l5.217,6.894c2.237,2.312,4.642,4.018,7.278,4.408c3.047,0.444,6.155-0.013,9.277-1.001l8.4-4.204l-0.56,9.377
								l8.4-4.204l-7.841-5.173l8.4-4.204c2.888-1.634,5.707-3.141,8.414-4.195c6.406-2.486,12.132-2.737,16.707-0.994l5.201,14.889
								l-15.495-2.941l5.201,14.889l10.294-11.948l5.2,14.889c-0.869,4.952-2.442,10.433-4.813,16.395c0,0-0.283,0.919-1.008,2.332
								l-1.389,2.126l-1.146-2.266l-1.389,2.125l2.535,0.141l-1.389,2.125c-0.502,0.622-1.063,1.259-1.689,1.896
								c0.416-0.246,0.799-0.49,1.151-0.729l1.069-0.844l0.195,1.348l1.069-0.844l-1.264-0.504l1.068-0.843
								c0.64-0.592,0.944-0.978,0.944-0.978c-0.403,1.139-0.854,2.235-1.353,3.265l-2.07,2.833l-1.419-3.209l-2.07,2.833
								l3.489,0.376l-2.07,2.834c-0.951,0.783-1.987,1.346-3.107,1.626c-0.615,1.951-1.942,2.929-4.505,2.398l-5.05-2.671
								l4.837-3.037l-5.049-2.67l0.212,5.707l-5.049-2.669c-1.409-0.988-2.945-2.124-4.617-3.417
								c-2.178-1.467-4.707-3.088-7.61-4.595l-8.445-2.627l6.497-6l-8.445-2.627l1.948,8.627l-8.445-2.627
								c-2.773-0.305-5.731-0.37-8.882-0.118c-5.424,0.441-11.375,2.068-17.898,4.628l-16.532,8.382l1.007-18.508l-16.532,8.382
								l15.525,10.126l-16.533,8.383c-5.103,2.919-10.446,6.046-16.039,9.32c-4.969,2.907-10.062,5.744-15.245,8.329l-16.38,5.569
								l3.368-16.971l-16.381,5.568l13.013,11.402l-16.38,5.568c-5.76,0.828-11.545,0.946-17.316,0.134
								c-5.778-0.819-11.515-2.565-17.253-4.854l-16.11-7.931l14.923-9.986l-16.11-7.931l1.187,17.917l-16.11-7.931
								c-5.382-2.714-10.827-5.278-16.366-7.396c-5.769-2.202-11.673-3.603-17.674-4.394l-18.193,0.46l8.698-15.986l-18.193,0.46
								l9.495,15.526l-18.194,0.46c-6.002,0.817-12.021,1.842-18.021,2.897c-5.936,1.043-11.874,1.585-17.737,1.562l-17.235-3.91
								l12.003-12.971l-17.234-3.91l5.231,16.881l-17.235-3.91c-5.187-2.585-10.144-5.853-14.797-9.864
								c-4.429-3.848-8.646-7.931-12.717-11.98L8.983,128.118l16.644-5.233l-12.854-11.797l-3.79,17.03l-12.854-11.797
								c-5.287-3.646-10.571-6.037-16.034-6.417c-5.756-0.388-11.482,1.186-17.208,4.117l-13.938,11.147l-2.685-17.645
								l-13.938,11.148l16.624,6.497l-13.938,11.148c-4.169,4.125-8.363,8.447-12.594,12.742c-3.842,3.899-7.88,7.66-12.049,11.106
								l-14.129,8.089l0.06-16.281l-14.129,8.089l14.069,8.192l-14.129,8.088c-5.474,1.551-10.923,2.027-16.217,1.093
								c-4.814-0.857-9.503-2.652-14.036-5.074l-11.843-9.108l13.809-5.701l-11.843-9.109l-1.966,14.811l-11.843-9.107
								c-3.748-3.593-7.29-7.222-10.596-10.597c-2.24-2.287-4.375-4.472-6.385-6.54l-6.306-6.615l8.882-2.154l-6.307-6.615
								l-2.575,8.769l-6.307-6.615c-2.979-3.235-5.029-5.615-5.926-6.946c-1.26-1.874-0.662-0.365,2.934,2.286l5.021,2.777
								l-4.917,2.96l5.021,2.777l-0.105-5.737l5.021,2.778C-192.749,125.357-190.955,126.032-188.983,126.675z"/>
							<g>
								
									<radialGradient id="SVGID_12_" cx="421.4038" cy="1745.0371" r="709.2801" gradientTransform="matrix(0.6626 -1.0567 0.749 0.9348 -1019.9705 -423.7388)" gradientUnits="userSpaceOnUse">
									<stop  offset="0" style="stop-color:#F6F6F6"/>
									<stop  offset="0.4731" style="stop-color:#F3F3F3"/>
									<stop  offset="1" style="stop-color:#ECECEC"/>
								</radialGradient>
								<path fill="url(#SVGID_12_)" d="M433.008,152.16c0,0-0.732,1.116-2.239,2.33l-2.906,1.37l0.267-3.202l-2.906,1.37
									l2.639,1.832l-2.906,1.369c-0.981,0.202-2.056,0.312-3.224,0.291c-2.656-0.052-5.655-1.596-9.134-4.245l-7.522-6.922
									l9.756-3.054l-7.522-6.923l-2.233,9.977l-7.523-6.923c-2.292-2.25-4.728-4.643-7.325-7.137
									c-1.823-1.75-3.776-3.471-5.856-5.063l-6.822-3.566l6.5-4.125l-6.823-3.566l0.323,7.691l-6.822-3.566
									c-2.442-0.676-4.993-1.059-7.649-1.063c-3.528-0.001-7.263,0.692-11.183,1.977l-10.131,5.165l0.592-11.356l-10.132,5.165
									l9.54,6.191l-10.132,5.166c-3.049,1.988-6.169,4.172-9.354,6.52c-4.084,3.012-8.21,6.233-12.403,9.468l-12.832,8.851
									l-1.25-15.538l-12.832,8.851l14.081,6.687l-12.832,8.852c-4.618,2.558-9.356,4.729-14.241,6.308
									c-4.864,1.566-9.896,2.145-15.001,1.771l-13.933-5.567l11.788-9.282l-13.933-5.568l2.145,14.851l-13.933-5.567
									c-3.875-2.827-7.692-6.172-11.408-10.018c-4.83-5.003-9.536-10.24-14.184-15.409l-14.889-14.68l20.158-5.554l-14.889-14.68
									l-5.269,20.234l-14.889-14.68c-6.027-4.468-12.188-7.754-18.62-9.219c-6.104-1.38-12.278-1.243-18.491-0.058l-17.146,7.072
									l2.449-18.385l-17.146,7.072l14.698,11.313l-17.146,7.072c-5.435,2.995-10.856,6.134-16.245,9.106
									c-4.893,2.698-9.778,5.065-14.612,7.016l-15.805,2.905l5.386-15.14L43.25,118.85l10.418,12.234l-15.804,2.905
									c-5.421-0.486-10.611-1.917-15.485-4.458c-4.857-2.539-9.452-5.833-13.866-9.597l-11.752-12.124l16.375-4.115L1.385,91.571
									l-4.624,16.239l-11.751-12.124c-3.822-4.276-7.623-8.49-11.474-12.395c-6.855-6.945-14.094-11.575-21.529-14.269
									l-25.043,3.21l9.741-23.293l-25.043,3.21l15.302,20.083l-25.043,3.21c-7.369,4.008-14.521,9.115-21.271,14.943
									c-5.353,4.625-10.562,8.975-15.6,12.957l-17.114,10.751l-0.753-20.196l-17.114,10.75l17.867,9.446l-17.114,10.75
									c-7.452,2.87-14.106,3.677-19.805,1.83c-1.972-0.643-3.765-1.317-5.391-2.001l-5.021-2.778l4.917-2.96l-5.022-2.777
									l0.105,5.737l-5.021-2.778c-3.595-2.65-4.193-4.16-2.934-2.286c0.897,1.332,2.949,3.712,5.928,6.948l6.306,6.614
									l-8.881,2.154l6.307,6.614l2.575-8.769l6.307,6.614c2.009,2.068,4.143,4.253,6.383,6.539
									c3.306,3.375,6.848,7.004,10.596,10.597l11.843,9.107l-13.809,5.703l11.843,9.107l1.966-14.811l11.843,9.108
									c4.532,2.422,9.221,4.217,14.035,5.074c5.294,0.935,10.743,0.458,16.218-1.093l14.129-8.088l-0.06,16.28l14.129-8.088
									l-14.069-8.192l14.13-8.089c4.168-3.446,8.207-7.207,12.049-11.106c3.817-3.875,7.585-7.781,11.326-11.55L-54.007,127
									l2.976,15.864l12.251-10.509L-54.007,127l12.251-10.51c4.888-3.063,9.816-5.248,14.837-6.177
									c4.582-0.839,9.183-0.231,13.807,1.477l11.512,7.913l-12.608,6.013l11.512,7.913l1.097-13.926l11.512,7.913
									c3.306,3.084,6.626,6.429,9.962,9.915c3.838,4.011,7.864,7.959,12.089,11.617l14.344,8.444l-14.485,8.2l14.343,8.444
									l0.142-16.645l14.343,8.444c5.285,1.553,10.807,2.281,16.576,1.931c6.486-0.4,13.201-1.844,20.124-3.587l20.026-4.017
									l-6.535,19.352l20.026-4.017l-13.492-15.335l20.026-4.017c6.64-0.303,13.413,0.2,20.304,1.998
									c9.525,2.499,18.715,6.018,27.614,9.844l27.157,10.991l-23.097,18.023l27.157,10.991l-4.06-29.015l27.157,10.991
									c9.929,2.283,19.552,2.586,28.96-0.531c8.552-2.848,16.656-6.865,24.383-11.457l22.115-15.458l2.33,26.882l22.115-15.459
									l-24.444-11.423l22.115-15.458c8.313-5.634,16.239-10.137,23.926-12.229c4.948-1.338,9.609-1.493,13.986-0.821l12.408,6.353
									l-11.705,7.57l12.408,6.352l-0.703-13.921l12.408,6.352c3.961,3.282,7.479,6.64,10.56,9.359
									c2.035,1.796,4.002,3.104,5.875,3.974l6.537-0.998l-2.405,6.16l6.537-0.997l-4.132-5.163l6.537-0.996
									C430.93,156.691,432.136,154.621,433.008,152.16z"/>
								
									<radialGradient id="SVGID_13_" cx="503.2881" cy="653.166" r="987.7906" gradientTransform="matrix(0.6626 -1.0567 0.749 0.9348 -1019.9705 -423.7388)" gradientUnits="userSpaceOnUse">
									<stop  offset="0" style="stop-color:#F6F6F6"/>
									<stop  offset="0.4731" style="stop-color:#F3F3F3"/>
									<stop  offset="1" style="stop-color:#ECECEC"/>
								</radialGradient>
								<path fill="url(#SVGID_13_)" d="M434.25,147.073c0,0-2,4.214-6.048,7.055l-8.788-0.349l4.696-7.437l-8.788-0.349
									l4.092,7.785l-8.788-0.349c-2.249-1.413-4.659-3.354-7.234-5.944c-3.192-3.212-7.011-6.84-11.427-10.1l-14.164-4.771
									l11.213-9.881l-14.164-4.771l2.95,14.652l-14.164-4.771c-4.614,0.286-9.513,1.471-14.683,3.85
									c-8.128,3.75-16.702,10.023-25.7,16.911l-26.138,15.985l-0.775-30.629l-26.138,15.985l26.913,14.644l-26.137,15.985
									c-9.774,2.786-19.883,3.117-30.306-0.572c-5.292-1.885-10.324-4.639-15.177-7.93l-13.075-11.101l16.151-5.772L215.498,144.1
									l-3.076,16.874l-13.075-11.102c-4.276-3.969-8.53-7.86-12.832-11.383c-3.773-3.088-7.619-5.807-11.509-8.138l-13.164-4.79
									l10.73-9.005l-13.164-4.79l2.434,13.795l-13.164-4.79c-4.728-0.605-9.432-0.594-14.065,0.069
									c-8.401,1.213-16.563,3.525-24.485,6.274l-23.797,8.573l4.474-24.896l-23.797,8.573l19.323,16.322l-23.797,8.573
									c-8.72,1.991-17.057,2.407-25.01-0.094c-7.317-2.315-14.047-6.457-20.421-11.601l-16.58-16.799l22.838-5.96L6.782,93.008
									l-6.258,22.759l-16.581-16.799c-5.767-5.951-11.603-11.396-17.729-15.546c-6.704-4.527-13.897-6.176-21.417-5.465
									l-19.687,10.312l0.913-22.205l-19.686,10.312l18.773,11.893l-19.686,10.313c-5.36,4.667-10.744,9.979-16.107,15.791
									c-3.77,4.084-7.359,7.615-10.764,10.658l-12.772,7.939l-0.489-15.031l-12.772,7.939l13.262,7.092l-12.772,7.939
									c-6.764,2.016-11.729,1.316-14.764-0.399c-2.306-1.31-3.629-2.816-4.05-4.631l2.272-5.732l3.828,4.833l2.272-5.732
									l-6.101,0.899l2.272-5.733c1.123-1.531,2.437-3.183,3.934-4.969c3.545-4.227,7.828-9.805,12.962-16.163l13.924-15.322
									l6.307,19.72l13.924-15.322l-20.231-4.397l13.925-15.322c4.825-4.575,10.036-9.135,15.662-13.545
									c3.043-2.382,6.225-4.586,9.513-6.496l10.859-3.534l-2.369,11.171l10.859-3.534l-8.49-7.637l10.859-3.534
									c3.77-0.186,7.581,0.219,11.394,1.347c4.531,1.346,9.054,3.754,13.62,6.964l11.319,10.352l-14.625,4.627l11.32,10.352
									l3.305-14.979l11.319,10.352c3.404,3.605,6.869,7.399,10.413,11.292c3.673,4.034,7.446,7.929,11.308,11.542l13.252,9.096
									l-14.503,6.929l13.252,9.096l1.251-16.024l13.252,9.096c5.146,2.089,10.391,3.289,15.715,3.339
									c5.453,0.044,10.937-0.907,16.452-2.521l15.257-6.736l-1.794,16.581l15.256-6.737l-13.462-9.844l15.256-6.736
									c4.924-2.571,9.873-5.19,14.846-7.636c4.64-2.28,9.305-4.246,13.944-5.81l14.873-1.764l-5.909,13.762l14.872-1.764
									l-8.963-11.998l14.872-1.763c4.959,0.737,9.741,2.271,14.272,4.739c4.743,2.591,9.247,5.943,13.581,9.79l11.356,12.325
									l-16.353,3.673l11.356,12.326l4.996-15.999l11.357,12.326c3.612,4.347,7.193,8.692,10.797,12.834
									c3.049,3.502,6.136,6.786,9.249,9.788l10.916,7.775l-12.191,5.565l10.916,7.775l1.276-13.341l10.915,7.775
									c4.365,1.895,8.719,2.978,13.027,3.085c4.1,0.097,8.166-0.526,12.178-1.711l10.873-5.725l-0.478,12.278l10.873-5.726
									l-10.395-6.553l10.873-5.726c3.289-2.396,6.509-4.998,9.648-7.7c5.051-4.35,9.762-8.753,14.16-13.065l13.414-13.831
									l5.271,18.532l13.414-13.831l-18.685-4.702l13.414-13.831c5.957-5.921,10.962-10.149,15.217-11.599
									c2.329-0.781,4.627,1.125,7.035,4.11l5.217,6.894l-8.579,1.071l5.217,6.894l3.362-7.965l5.217,6.894
									c2.237,2.312,4.642,4.018,7.278,4.408c3.047,0.444,6.155-0.013,9.277-1.001l8.4-4.204l-0.56,9.377l8.4-4.204l-7.841-5.173
									l8.4-4.204c2.888-1.634,5.707-3.141,8.414-4.195c6.406-2.486,12.132-2.737,16.707-0.994l5.201,14.889l-15.495-2.941
									l5.201,14.889l10.294-11.948l5.2,14.889C438.194,135.63,436.621,141.111,434.25,147.073z"/>
								
									<radialGradient id="SVGID_14_" cx="503.5518" cy="830.2598" r="871.0854" gradientTransform="matrix(0.6626 -1.0567 0.749 0.9348 -1019.9705 -423.7388)" gradientUnits="userSpaceOnUse">
									<stop  offset="0" style="stop-color:#F6F6F6"/>
									<stop  offset="0.4731" style="stop-color:#F3F3F3"/>
									<stop  offset="1" style="stop-color:#ECECEC"/>
								</radialGradient>
								<path fill="url(#SVGID_14_)" d="M423.409,145.975c0,0,0.754,2.396,1.369,5.53l0.092,5.644l-4.933-2.742l0.092,5.644
									l4.841-2.901l0.092,5.643c-0.66,1.914-1.942,3.205-4.19,3.236c-1.568,0.015-3.597-1.169-6.432-3.197l-5.872-4.303
									l6.661-2.934l-5.872-4.302l-0.789,7.235l-5.872-4.301c-1.843-1.287-3.853-2.643-6.048-4.047
									c-4.605-2.944-10.503-5.283-17.596-6.306l-18.417,2.748l6.83-17.324l-18.417,2.748l11.588,14.576l-18.417,2.747
									c-5.337,2.127-10.961,4.879-16.858,8.355c-4.517,2.665-9.066,5.506-13.658,8.333l-14.045,7.629l0.416-15.978l-14.045,7.629
									l13.629,8.349l-14.045,7.629c-5.003,2.102-10.075,3.777-15.227,4.813c-5.06,1.012-10.19,1.083-15.322,0.31l-13.969-6.134
									l12.297-9.031l-13.969-6.135l1.672,15.166l-13.969-6.135c-3.999-2.904-7.912-6.253-11.702-9.994
									c-4.304-4.251-8.531-8.806-12.747-13.401l-13.014-13.124l17.872-4.709l-13.015-13.124l-4.857,17.833l-13.015-13.123
									c-4.948-4.106-10.051-7.608-15.402-10.145c-5.123-2.422-10.458-3.721-15.941-4.125l-16.173,2.912l5.565-15.462
									l-16.173,2.911l10.608,12.551l-16.173,2.912c-5.057,1.897-10.132,4.147-15.182,6.601c-5.03,2.444-10.058,4.874-15.056,7.096
									l-15.866,4.78l3.793-16.13l-15.866,4.779l12.073,11.351l-15.866,4.78c-5.645,0.5-11.152,0.107-16.472-1.508
									c-5.32-1.624-10.386-4.376-15.284-7.853L4.498,118.258l16.464-5.081L8.329,101.459l-3.832,16.799L-8.135,106.54
									c-4.012-4.203-8.011-8.405-12.053-12.332c-3.732-3.621-7.666-6.685-11.721-9.091l-14.25-2.533l9.319-11.075l-14.25-2.533
									l4.932,13.608l-14.25-2.533c-4.494,1.165-8.918,3.345-13.173,6.664c-5.597,4.375-10.888,9.808-16.018,15.827l-13.647,17.952
									l-8.723-20.795l-13.647,17.951l22.37,2.844l-13.647,17.951c-4.673,6.146-9.433,12.058-14.396,17.354
									c0,0,0.559-7.877,4.533-21.045l8.52-19.762l12.854,17.259l8.52-19.762l-21.374,2.502l8.52-19.762
									c3.264-5.851,7.017-11.984,11.333-18.334c3.16-4.642,6.776-9.129,10.778-13.072l14.958-6.993l-1.423,16.45l14.958-6.993
									l-13.535-9.457l14.958-6.993c5.181,0.114,10.588,1.528,16.159,4.604c6.958,3.854,14.347,10.29,22.406,17.342L4.329,87.416
									l-25.266,12.498L2.52,115.546l1.809-28.13l23.457,15.632c8.628,2.881,17.92,4.116,27.995,2.747
									c5.804-0.796,11.523-2.175,17.171-3.85l16.668-5.685l-3.411,17.277l16.668-5.685L89.62,96.261l16.668-5.686
									c5.741-1.809,11.436-3.306,17.102-4.15c5.229-0.775,10.406-0.834,15.494-0.258l14.518,5.188l-11.752,9.979l14.519,5.188
									l-2.766-15.167l14.519,5.188c4.344,2.649,8.533,5.726,12.533,9.16c4.132,3.55,8.125,7.312,12.033,11.124l11.762,11.411
									l-15.763,4.481l11.762,11.41l4.001-15.891l11.762,11.411c4.257,3.771,8.543,7.19,12.935,10.032
									c3.734,2.413,7.565,4.314,11.453,5.733l12.634,1.394l-7.524,10.244l12.635,1.394l-5.111-11.638l12.635,1.393
									c4.198-0.535,8.366-1.543,12.456-2.989c7.711-2.735,15.169-6.288,22.381-10.108l21.703-11.481l-0.908,24.536l21.704-11.481
									l-20.795-13.055l21.704-11.482c8.431-3.277,16.435-4.838,24.032-3.292c3.027,0.621,5.922,1.714,8.697,3.147l7.385,5.565
									l-8.512,3.613l7.385,5.565l1.126-9.178l7.385,5.565c2.251,2.161,4.415,4.404,6.5,6.616c1.786,1.894,3.633,3.653,5.505,5.167
									l6.868,2.523l-5.619,4.687l6.867,2.522l-1.248-7.209l6.867,2.523C419.356,149.496,421.465,148.241,423.409,145.975z"/>
								
									<radialGradient id="SVGID_15_" cx="458.1328" cy="-273.478" r="1938.8535" gradientTransform="matrix(0.6626 -1.0567 0.749 0.9348 -1019.9705 -423.7388)" gradientUnits="userSpaceOnUse">
									<stop  offset="0" style="stop-color:#F6F6F6"/>
									<stop  offset="0.4731" style="stop-color:#F3F3F3"/>
									<stop  offset="1" style="stop-color:#ECECEC"/>
								</radialGradient>
								<path fill="url(#SVGID_15_)" d="M422.895,164.188c0,0-1.015,0.736-4.67-0.556l-4.278-2.171l4.019-2.619l-4.277-2.171
									l0.258,4.79l-4.278-2.172c-1.231-0.758-2.572-1.626-4.031-2.617c-2.167-1.473-4.687-3.118-7.587-4.658l-8.428-2.723
									l6.572-5.938l-8.428-2.723l1.856,8.66l-8.428-2.723c-2.773-0.336-5.735-0.434-8.893-0.211
									c-5.456,0.389-11.455,1.993-18.041,4.552l-16.655,8.409l1.045-18.629l-16.655,8.409l15.61,10.22l-16.655,8.409
									c-5.137,2.934-10.516,6.079-16.148,9.377c-6.9,4.037-14.078,7.621-21.424,10.525l-23.37,3.645l8.529-22.061l-23.369,3.644
									l14.84,18.417l-23.369,3.644c-7.726-0.896-15.391-2.986-22.876-6.517c-7.539-3.56-15.207-7.15-22.99-10.447l-24.205-6.854
									l18.038-17.535l-24.205-6.854l6.167,24.389l-24.204-6.854c-8.306-0.8-16.698-0.621-25.161,0.876
									c-8.34,1.479-16.673,2.362-24.874,2.482l-24.167-5.356l16.723-18.251l-24.167-5.356l7.445,23.607l-24.167-5.355
									c-7.1-3.799-13.8-8.716-19.974-14.921c-2.997-3.014-5.934-6.07-8.834-9.053l-9.279-8.576l12.066-3.748l-9.279-8.575
									l-2.788,12.323l-9.278-8.576c-3.617-2.685-7.255-4.84-10.958-6.227c-3.53-1.316-7.156-1.765-10.808-1.457l-9.947,4.327
									l1.227-10.777l-9.947,4.326l8.72,6.451l-9.946,4.327c-2.771,2.146-5.48,4.64-8.091,7.43c0,0,4.303-5.888,11.477-10.627
									l14.923-1.626l-6.053,13.737l14.923-1.626l-8.87-12.111l14.923-1.626c4.111,1.827,8.397,4.717,12.794,8.983
									c4.197,4.078,8.646,8.896,13.407,13.721l15.356,11.239l-17.411,7.679l15.356,11.238l2.055-18.917l15.356,11.239
									c5.887,2.142,12.161,3.021,18.875,1.993c8.076-1.25,16.532-4.804,25.27-9.028l24.896-9.941l-3.839,26.531l24.896-9.94
									l-21.057-16.59l24.896-9.941c8.71-1.18,17.507-0.404,26.313,3.614c8.103,3.716,15.697,8.46,22.907,13.591l21.269,16.08
									l-24.56,10.379l21.269,16.08l3.291-26.459l21.269,16.08c8.402,5.231,16.595,8.606,24.902,8.485
									c7.499-0.122,14.707-1.791,21.669-4.451l19.064-11.321l0.272,22.171l19.065-11.321l-19.337-10.85l19.064-11.322
									c6.258-4.468,12.355-8.847,18.342-12.561c4.293-2.661,8.5-4.914,12.595-6.753l13.843-2.99l-4.333,13.483l13.843-2.99
									l-9.51-10.493l13.843-2.989c4.979,0.332,9.566,1.596,13.672,3.807c3.232,1.746,6.228,3.935,9.063,6.306l8.184,7.428
									l-10.525,3.374l8.184,7.428l2.341-10.802l8.184,7.429C416.412,161.511,419.581,163.429,422.895,164.188z"/>
							</g>
						</g>
					</g>
				</g>
			</g>
			<g clip-path="url(#SVGID_3_)">
				<g>
					<g>
						<g>
							
								<radialGradient id="SVGID_16_" cx="3352.2686" cy="4122.915" r="651.1349" gradientTransform="matrix(-0.7344 -0.9576 -0.6788 1.0361 5625.5044 -287.3579)" gradientUnits="userSpaceOnUse">
								<stop  offset="0" style="stop-color:#D5E305"/>
								<stop  offset="0.4731" style="stop-color:#51B800"/>
							</radialGradient>
							<path fill="url(#SVGID_16_)" d="M405.241,181.742c0,0,2.651,4.324,7.837,7.479l10.499,0.664l-4.675-9.425l10.499,0.664
								l-5.824,8.761l10.499,0.663c2.955-1.143,6.13-2.856,9.521-5.291c3.813-2.739,8.047-6.112,12.768-9.471l14.209-6.885
								l-13.066-8.862l14.209-6.886l-1.143,15.748l14.209-6.885c4.92-1.097,10.177-1.569,15.799-1.145
								c8.64,0.665,17.831,3.784,27.697,8.152l26.104,12.634l-2.111-28.925l26.104,12.634l-23.993,16.291l26.105,12.633
								c8.65,3.733,17.73,7.143,27.282,9.809c11.222,3.119,22.311,4.678,33.24,5.156l33.453-3.455l-19.719-27.243l33.453-3.456
								l-13.734,30.699l33.453-3.456c11.328-2.172,22.391-4.428,33.151-6.098c10.247-1.596,19.978-4.994,29.312-9.526l25.576-17.3
								l-27.77-13.5l25.575-17.3l2.194,30.8l25.576-17.301c8.418-6.533,16.673-12.886,24.896-18.349
								c8.165-5.41,16.591-7.663,25.099-7.528l23.938,10.563l-2.821-26.013l23.938,10.563l-21.117,15.45l23.938,10.563
								c6.858,5.372,13.535,11.399,19.925,17.628c2.91,2.836,5.752,5.58,8.529,8.183l9.085,7.542l1.988-11.639l9.085,7.541
								l-11.073,4.098l9.085,7.541c3.59,2.417,7.063,4.3,10.427,5.497c2.232,0.793,4.42,1.202,6.536,1.291l6.365-1.713l-4.666-4.655
								l6.365-1.713l-1.699,6.368l6.364-1.713c1.926-1.167,3.688-2.572,5.249-4.12c4.308-4.284,7.424-7.425,9.481-9.594l-7.62,3.992
								l7.267,4.604l-7.621,3.991l0.354-8.595l-7.621,3.991c-3.403,2.275-7.188,4.769-11.279,7.377
								c-6.876,4.391-14.506,10.441-22.491,16.896l-22.994,16.099l25.439,11.863l-22.994,16.1l-2.445-27.963l-22.993,16.099
								c-9.899,4.421-19.194,5.789-27.112,1.65c-8.653-4.55-16.843-11.756-24.854-19.967l-22.367-22.835l-8.592,30.788
								l-22.368-22.835l30.96-7.953l-22.367-22.836c-9.249-6.916-18.93-11.281-29.433-10.84
								c-10.374,0.464-21.151,4.646-32.816,10.205l-31.714,13.645l27.673,20.643l-31.714,13.645l4.041-34.287l-31.714,13.644
								c-10.598,2.771-21.951,4.483-34.209,4.409c-10.133-0.07-19.981-0.92-29.548-2.289l-28.866-6.703l8.629,28.351l-28.866-6.702
								l20.237-21.648l-28.866-6.702c-9.911-2.835-19.434-5.611-28.573-7.896c-6.713-1.676-13.189-2.883-19.409-3.666l-19.676,0.464
								l10.24,16.808l-19.675,0.464l9.435-17.271l-19.675,0.465c-6.893,1.355-13.19,3.343-18.84,5.839
								c-3.668,1.623-7.126,3.277-10.389,4.884l-10.367,4.916l9.441,6.521l-10.367,4.916l0.926-11.437l-10.367,4.916
								c-4.202,1.585-7.904,2.426-11.182,2.092c-2.797-0.29-5.266-1.315-7.413-2.894l-4.327-6.642l-3.589,7.068l-4.327-6.642
								l7.916-0.427l-4.328-6.642C406.226,187.081,405.627,184.432,405.241,181.742z"/>
							
								<radialGradient id="SVGID_17_" cx="3428.3428" cy="3195.1748" r="846.2766" gradientTransform="matrix(-0.7344 -0.9576 -0.6788 1.0361 5625.5044 -287.3579)" gradientUnits="userSpaceOnUse">
								<stop  offset="0" style="stop-color:#D5E305"/>
								<stop  offset="0.4731" style="stop-color:#51B800"/>
							</radialGradient>
							<path fill="url(#SVGID_17_)" d="M404.968,176.512c0,0,0.693,4.292,2.858,9.123l6.655,6.423l2.236-8.975l6.654,6.423
								l-8.89,2.552l6.655,6.423c2.709,0.67,5.849,0.683,9.48-0.262c3.438-0.899,7.239-2.973,11.622-5.625l11.218-6.465
								l-11.208-6.482l11.218-6.465l-0.01,12.947l11.217-6.465c3.681-1.78,7.65-3.479,11.951-4.985
								c7.321-2.557,15.749-3.39,25.274-2.724l24.789,6.055l-7.151-24.496l24.789,6.054l-17.638,18.442l24.79,6.054
								c7.559,2.731,15.498,5.87,23.817,9.37c17.527,7.371,34.489,12.543,50.814,15.808l52.645-2.687l-28.648-44.248l52.645-2.687
								l-23.996,46.935l52.645-2.686c17.498-5.723,33.5-13.691,47.826-23.176c5.886-3.902,11.573-8.19,17.121-12.5l17.256-12.263
								l-19.247-8.813l17.256-12.263l1.991,21.076l17.257-12.263c6.705-3.487,13.389-5.72,20.178-5.926
								c7.927-0.225,15.657,2.806,23.381,7.986l18.016,17.407l6.067-24.305l18.015,17.407l-24.082,6.898l18.015,17.407
								c5.456,6.127,11.039,12.458,16.808,18.659c3.402,3.652,6.714,6.467,9.907,8.598l12.499,2.412l-4.16-12.03L958,200.594
								l-8.339,9.617l12.499,2.413c5.034-1.347,9.072-3.802,11.815-5.622c1.622-1.077,2.883-2.012,3.803-2.893l-0.047-4.254
								l-3.66,2.167l-0.047-4.253l3.707,2.086l-0.047-4.253c-0.745-1.121-1.69-2.39-2.824-3.86
								c-3.218-4.171-7.13-10.422-11.972-17.94l-12.521-17.554l-8.941,19.62l-12.521-17.554l21.463-2.066l-12.521-17.554
								c-4.381-5.343-9.159-10.746-14.378-16.061c-2.716-2.764-5.577-5.304-8.545-7.515l-10.374-4.317l1.448,11.143l-10.375-4.317
								l8.927-6.826l-10.375-4.317c-3.716-0.263-7.465,0.213-11.19,1.591c-4.28,1.588-8.528,4.225-12.831,7.569l-10.896,10.226
								l14.304,4.324l-10.896,10.226l-3.407-14.549l-10.897,10.226c-3.436,3.459-6.976,7-10.652,10.488
								c-7.666,7.267-15.94,12.526-24.63,16.386l-29.016,5.699l19.443,22.279l-29.016,5.699l9.572-27.979l-29.017,5.7
								c-9.938,0.689-19.887,1.238-29.632,2.324c-9.159,1.028-18.18,3.285-27.065,6.069l-26.319,8.829l20.806,18.38l-26.319,8.828
								l5.514-27.208l-26.32,8.829c-9.335,2.267-18.515,3.41-27.544,2.455c-8.608-0.922-16.939-3.066-24.975-5.991l-22.725-11.991
								l0.978,25.676l-22.725-11.991l21.747-13.685L547.741,172.9c-7.755-4.91-15.06-9.654-21.885-13.555
								c-4.031-2.303-7.824-4.329-11.368-6.16l-11.428-6.035l0.488,12.914l-11.428-6.035l10.939-6.879l-11.428-6.035
								c-4.148-2.676-7.238-5.445-9.185-8.909c-1.065-1.897-2.622-1.799-4.597-0.682l-4.24,3.253l4.938,2.046l-4.24,3.253
								l-0.697-5.299l-4.24,3.253c-1.4,1.065-2.881,2.102-4.434,2.994c-2.165,1.241-4.59,1.862-7.177,2.056l-7.433-0.976
								l2.871,6.925l-7.434-0.976l4.563-5.949l-7.434-0.976c-2.455-0.616-4.901-1.293-7.275-1.908
								c-5.659-1.463-10.911-1.871-15.467-1.103l-8.433,11.451l14.133,1.577l-8.433,11.45l-5.7-13.027l-8.433,11.45
								C403.179,165.482,403.707,170.634,404.968,176.512z"/>
							
								<radialGradient id="SVGID_18_" cx="3436.8633" cy="3338.2754" r="773.8011" gradientTransform="matrix(-0.7344 -0.9576 -0.6788 1.0361 5625.5044 -287.3579)" gradientUnits="userSpaceOnUse">
								<stop  offset="0" style="stop-color:#D5E305"/>
								<stop  offset="0.4731" style="stop-color:#51B800"/>
							</radialGradient>
							<path fill="url(#SVGID_18_)" d="M416.006,176.719c0,0-1.656,3.04-3.109,7.688l-1,8.189l7.592-3.229l-1,8.189l-6.592-4.961
								l-1,8.189c0.255,2.675,0.853,5.392,1.93,8.047c0.793,1.947,1.91,3.768,3.407,5.262l5.801,1.905l-1.25-5.977l5.801,1.905
								l-4.55,4.071l5.801,1.905c1.866-0.148,3.917-0.555,6.168-1.268c4.245-1.35,9.064-4.317,14.797-8.052l14.517-8.606
								l-14.712-8.27l14.518-8.606l0.194,16.876l14.518-8.607c4.78-2.305,9.965-4.497,15.606-6.44
								c8.799-3.021,18.391-3.71,28.625-2.841l28.073,6.919l-8.044-27.771l28.072,6.919l-20.028,20.852l28.072,6.92
								c8.989,2.939,18.199,6.026,27.564,8.931c10.077,3.119,20.279,5.019,30.532,5.985l31.045-1.593l-16.901-26.089l31.044-1.593
								l-14.143,27.682l31.044-1.593c10.331-1.657,20.565-3.681,30.627-5.771c5.049-1.051,10.08-2.233,15.064-3.61l14.456-5.496
								l-11.988-9.772l14.457-5.496l-2.469,15.269l14.457-5.497c4.545-2.323,8.987-4.946,13.301-7.924
								c4.37-3.019,8.592-6.41,12.725-9.93l12.285-10.473l-15.213-5.402l12.285-10.473l2.928,15.875l12.284-10.474
								c4.518-3.396,9.072-6.318,13.746-8.412c5.124-2.287,10.508-2.771,16.011-1.682l13.691,8.522l0.534-16.118l13.691,8.521
								l-14.226,7.597l13.69,8.521c3.586,3.671,7.123,7.85,10.572,12.475c3.905,5.24,7.641,10.785,11.249,16.303l11.234,16.295
								l8.495-17.876l11.234,16.295l-19.729,1.581l11.234,16.296c5.354,6.248,10.603,10.427,15.931,11.042c0,0,0.188-1,0.131-3.128
								l-0.321-3.119l-2.541,1.839l-0.321-3.119l2.862,1.28l-0.321-3.118c-0.156-0.951-0.348-1.978-0.58-3.084
								c-0.921-4.371-2.224-9.964-4.058-16.619l-5.375-16.236l-11.374,12.773l-5.374-16.237l16.748,3.464l-5.375-16.236
								c-1.935-5.034-4.088-10.32-6.484-15.832c-2.413-5.545-5.18-10.953-8.227-15.884l-13.175-11.337l-3.23,17.079l-13.176-11.337
								l16.406-5.741l-13.175-11.337c-5.345-0.763-10.877,0.819-16.424,5.562c-2.994,2.565-5.995,5.677-9.109,9.038l-8.972,9.175
								l12.432,3.183l-8.972,9.175l-3.46-12.357l-8.972,9.175c-3.206,2.785-6.62,5.383-10.305,7.619
								c-4.308,2.609-9.097,4.244-14.284,4.998l-15.01-1.736l6.001,13.866l-15.01-1.737l9.009-12.129l-15.009-1.737
								c-4.609-1.46-9.355-3.301-14.206-5.485c-5.382-2.425-10.7-4.767-15.938-6.861l-16.743-4.235l4.704,16.617l-16.742-4.235
								l12.038-12.381l-16.742-4.235c-5.883-0.219-11.586,0.49-17.077,2.431c-5.243,1.86-10.259,4.575-15.123,7.82l-13.143,10.865
								l15.98,5.949l-13.143,10.865l-2.838-16.814l-13.144,10.865c-4.306,3.862-8.602,7.654-12.95,11.1
								c-8.197,6.487-16.783,10.263-25.588,12.018l-27.789-4.404l10.081,26.269l-27.789-4.403l17.708-21.865l-27.789-4.403
								c-8.842-3.583-17.552-7.749-25.964-11.836c-6.771-3.286-13.41-5.649-19.854-7.206l-20.902,0.469l10.857,17.867l-20.902,0.469
								l10.045-18.336l-20.901,0.469c-7.024,2.169-13.416,5.301-19.021,9.098c-2.195,1.488-4.309,2.988-6.352,4.455l-6.378,4.414
								l7.011,3.316l-6.377,4.413l-0.634-7.729l-6.378,4.413c-2.375,1.454-4.665,2.667-6.896,3.528
								c-2.123,0.817-4.262,1.167-6.368,1.016l-5.512-3.104l0.067,6.325l-5.512-3.104l5.445-3.222l-5.512-3.104
								C418.363,180.588,417.145,178.801,416.006,176.719z"/>
							
								<radialGradient id="SVGID_19_" cx="3375.3145" cy="2434.5" r="1628.0883" gradientTransform="matrix(-0.7344 -0.9576 -0.6788 1.0361 5625.5044 -287.3579)" gradientUnits="userSpaceOnUse">
								<stop  offset="0" style="stop-color:#D5E305"/>
								<stop  offset="0.4731" style="stop-color:#51B800"/>
							</radialGradient>
							<path fill="url(#SVGID_19_)" d="M411.826,201.968c0,0,0.232,2.408,1.561,5.397l3.634,4.195l1.816-5.244l3.634,4.195
								l-5.45,1.049l3.634,4.195c1.474,0.89,3.19,1.636,5.189,2.156c5.138,1.326,11.739-0.829,21.087-4.615l20.49-7.737
								l-16.946-13.876l20.49-7.738l-3.544,21.614l20.49-7.738c6.418-1.983,13.446-3.916,21.155-5.692
								c14.148-3.24,30.044-2.57,47.003-0.264l46.645,7.415l-16.899-44.103l46.644,7.416l-29.744,36.687l46.645,7.416
								c15.872,1.042,31.667,0.435,46.961-3.237c7.719-1.859,15.266-4.58,22.666-7.718l21.667-10.241l-19.702-13.644l21.667-10.241
								l-1.965,23.885l21.667-10.241c7.658-3.33,15.207-6.074,22.685-7.633c8.628-1.786,17.164-0.399,25.559,3.333l19.904,16.732
								l4.539-25.604l19.905,16.733l-24.444,8.871l19.905,16.733c5.504,6.478,10.898,13.449,16.166,20.624
								c0,0-1.147-2.047-3.463-5.851l-3.626-5.751l-3.167,6.016l-3.626-5.751l6.793-0.265l-3.626-5.752
								c-1.151-1.771-2.396-3.666-3.735-5.676c-2.508-3.761-5.27-7.978-8.32-12.238l-10.063-10.764l-4.29,14.096l-10.063-10.764
								l14.353-3.332l-10.063-10.764c-4.085-2.914-8.496-5.162-13.263-6.374c-5.19-1.31-10.723-0.409-16.652,1.931l-14.614,8.707
								l14.848,8.303l-14.614,8.707l-0.233-17.01l-14.614,8.706c-4.538,3.081-9.267,6.278-14.197,9.399
								c-6.58,4.16-13.725,7.781-21.409,10.832l-23.337,5.363l16.313,17.529l-23.338,5.363l7.024-22.893l-23.338,5.364
								c-7.687,0.708-15.691,1.007-24.001,0.877c-8.91-0.144-17.545-1.039-25.916-2.462l-25.044-7.068l6.4,25.223l-25.044-7.068
								l18.644-18.154l-25.044-7.068c-8.451-3.074-16.584-6.217-24.416-9.078c-5.898-2.154-11.597-3.983-17.092-5.483l-17.715-2.532
								l6.664,16.607l-17.715-2.532l11.051-14.075l-17.715-2.533c-6.351,0.107-12.272,0.889-17.755,2.354
								c-6.932,1.859-13.329,4.272-19.263,6.883l-18.457,8.83l16.876,11.568l-18.457,8.83l1.581-20.398l-18.457,8.83
								C424.015,206.168,417.646,206.295,411.826,201.968z"/>
						</g>
						<g>
							
								<radialGradient id="SVGID_20_" cx="1969.9199" cy="5204.8691" r="797.9036" gradientTransform="matrix(-0.5132 -1.2109 -0.8583 0.724 5593.541 -692.2085)" gradientUnits="userSpaceOnUse">
								<stop  offset="0.043" style="stop-color:#FFC800"/>
								<stop  offset="0.6129" style="stop-color:#FF6C00"/>
								<stop  offset="1" style="stop-color:#FF3400"/>
							</radialGradient>
							<path fill="url(#SVGID_20_)" d="M433.554,132.572c0,0,1.063,1.638,3.23,3.664l4.076,2.664l0.27-4.862l4.076,2.664
								l-4.346,2.198l4.076,2.665c1.413,0.605,2.961,1.128,4.646,1.518c3.494,0.804,7.531-0.167,12.076-2.664l9.703-8.037
								l-11.812-4.385l9.703-8.037l2.108,12.422l9.703-8.037c2.753-2.83,5.611-5.936,8.572-9.292
								c2.082-2.359,4.266-4.74,6.561-7.023l7.612-5.808l-8.837-3.688l7.612-5.809l1.225,9.496l7.611-5.809
								c2.867-1.466,5.873-2.578,9.03-3.206c3.729-0.739,7.689-0.718,11.842-0.063l11.153,4.018l-2.097-11.667l11.152,4.018
								l-9.056,7.649l11.152,4.018c3.389,1.754,6.844,3.73,10.349,5.88c4.307,2.643,8.647,5.446,13.036,8.226l13.48,7.437
								l-0.3-15.393l13.48,7.437l-13.181,7.956l13.48,7.437c4.81,2.017,9.7,3.61,14.688,4.572c4.888,0.939,9.838,1.051,14.835,0.501
								l14.147-4.447l-10.925-10.029l14.147-4.446l-3.223,14.475l14.147-4.447c4.377-2.09,8.771-4.441,13.174-6.952
								c5.27-3.006,10.543-5.829,15.817-8.409l16.746-6.273l-13.806-11.366l16.746-6.273l-2.94,17.639l16.746-6.273
								c5.895-1.433,11.786-2.401,17.672-2.823c5.469-0.39,10.912-0.555,16.306-0.69l16.269-1.093l-9.08-13.543l16.269-1.092
								l-7.188,14.635l16.27-1.092c5.372-0.896,10.63-2.209,15.742-4.171c10.224-3.938,19.67-10.335,28.623-17.918l24.07-23.89
								l-32.725-8.9l24.069-23.89l8.655,32.79l24.069-23.89c9.172-8.412,18.41-15.207,28.126-18.538
								c8.906-3.034,17.808-3.278,26.646-1.721l24.602,10.768l-2.976-26.689L985.266-2.55l-21.627,15.921L988.24,24.14
								c8.086,4.652,16.01,9.233,23.721,12.857c6.116,2.87,12.121,4.955,17.975,6.372l18.939,0.257l-9.248-16.53l18.939,0.256
								l-9.691,16.274l18.939,0.256c6.487-1.394,12.553-3.473,18.106-5.975c6.425-2.898,11.653-5.05,15.807-6.498l1.826,8.416
								l6.375-5.79l1.826,8.416l-8.201-2.626l1.826,8.416c-2.963,3.948-6.521,8.453-10.535,13.461
								c-2.977,3.711-6.279,7.564-9.857,11.268l-11.911,8.934l13.692,5.848l-11.91,8.935l-1.782-14.782l-11.91,8.934
								c-4.637,2.086-9.467,3.404-14.438,3.63c-5.484,0.242-11.085-0.8-16.709-2.735l-14.823-8.271l0.249,16.973l-14.823-8.271
								l14.574-8.702l-14.823-8.271c-4.67-3.333-9.237-6.814-13.645-10.193c-4.056-3.108-8.112-6.109-12.165-8.875l-13.38-6.767
								l0.83,14.971l-13.38-6.767l12.55-8.204l-13.38-6.768c-4.988-1.382-9.957-1.971-14.899-1.526
								c-4.971,0.454-9.887,2.042-14.786,4.499l-12.414,9.272l14.237,6.114l-12.414,9.273l-1.823-15.387l-12.414,9.272
								c-3.671,3.427-7.371,7.086-11.115,10.868c-4.139,4.181-8.429,8.407-12.889,12.41l-14.879,9.754l15.887,8.009l-14.879,9.754
								l-1.008-17.763l-14.879,9.754c-5.588,2.089-11.411,3.293-17.491,3.286c-6.999-0.018-14.192-1.767-21.636-4.382l-20.516-8.404
								l2.979,21.969l-20.515-8.404l17.535-13.564l-20.515-8.404c-6.896-2.462-14.023-4.511-21.413-5.68
								c-11.319-1.771-21.818,1.582-31.799,7.689l-24.712,22.416l31.769,10.194l-24.713,22.416l-7.056-32.609l-24.713,22.415
								c-9.031,8.415-18.071,15.435-27.417,18.729c-9.345,3.266-18.622,2.445-27.797-0.754l-23.934-15.029l-1.049,28.242
								l-23.935-15.029l24.983-13.212l-23.935-15.029c-8.255-5.919-16.364-11.239-24.301-14.5
								c-6.155-2.518-12.005-3.011-17.544-2.096l-15.105,9.092l15.427,8.536l-15.104,9.092l-0.322-17.628l-15.105,9.093
								c-4.525,4.388-8.676,8.931-12.441,12.869c-2.889,3.018-5.822,5.14-8.724,6.468l-10.118-1.745l3.548,9.635l-10.119-1.745
								l6.571-7.89l-10.119-1.745C437.673,138.923,435.425,136.007,433.554,132.572z"/>
							
								<radialGradient id="SVGID_21_" cx="2052.126" cy="3850.9541" r="1209.8282" gradientTransform="matrix(-0.5132 -1.2109 -0.8583 0.724 5593.541 -692.2085)" gradientUnits="userSpaceOnUse">
								<stop  offset="0.043" style="stop-color:#FFC800"/>
								<stop  offset="0.6129" style="stop-color:#FF6C00"/>
								<stop  offset="1" style="stop-color:#FF3400"/>
							</radialGradient>
							<path fill="url(#SVGID_21_)" d="M430.303,125.41c0,0,0.735,1.763,2.406,4.372l3.127,3.884l1.8-4.65l3.127,3.884l-4.927,0.766
								l3.126,3.884c1.112,1.116,2.344,2.241,3.702,3.342c2.419,1.955,5.424,3.155,8.855,3.322l8.75-3.47l-7.38-5.843l8.75-3.471
								l-1.37,9.313l8.751-3.471c2.26-1.82,4.572-4.031,6.915-6.672c3.795-4.283,8.133-9.026,12.987-13.425l16.496-7.91
								L490.32,98.934l16.496-7.91l-1.397,18.241l16.496-7.91c5.694-0.168,11.723,1.012,18.068,4.03
								c8.584,4.097,17.563,9.658,26.809,15.278l28.275,11.571l-4.117-30.272l28.275,11.57l-24.158,18.702l28.275,11.57
								c9.771,0.428,19.555-1.837,29.22-8.195c4.763-3.139,9.354-6.578,13.833-10.106l13.439-10.625l-15.921-6.327l13.439-10.625
								l2.481,16.952l13.44-10.625c4.873-3.451,9.754-6.458,14.729-8.708c4.335-1.957,8.712-3.34,13.103-4.26l13.738-0.363
								l-7.184-11.716l13.737-0.363l-6.554,12.079l13.737-0.363c4.591,0.556,9.136,1.367,13.607,2.304
								c8.211,1.721,16.245,2.84,24.04,3.237l23.573-4.495l-15.679-18.167l23.572-4.495l-7.894,22.663l23.573-4.495
								c6.958-3.577,13.49-8.287,19.521-14.278c5.719-5.687,11.224-11.61,16.607-17.437L886.803,38.7l-23.107-6.632l17.297-16.696
								l5.811,23.328L904.1,22.004c7.024-5.044,14.187-8.626,21.701-9.962c7.623-1.342,15.357-0.489,23.236,1.903l20.67,11.07
								L968.959,1.58l20.671,11.07l-19.923,12.366l20.671,11.071c6.349,4.29,12.812,8.821,19.401,13.318
								c4.209,2.87,8.176,5.23,11.897,7.152l13.248,3.685l-3.433-13.316l13.248,3.684l-9.815,9.632l13.249,3.685
								c6.286-0.151,10.603-2.098,12.894-4.309c1.779-1.723,2.574-3.307,2.466-4.791l-4.042-3.468l-0.981,5.234l-4.043-3.467
								l5.024-1.768l-4.042-3.467c-1.537-0.651-3.279-1.293-5.216-1.932c-4.288-1.413-9.589-3.216-15.816-5.584l-15.363-6.721
								l1.86,16.665l-15.363-6.721l13.503-9.944l-15.363-6.722c-4.72-2.334-9.682-4.91-14.872-7.759
								c-7.347-4.032-15.23-8.734-23.509-13.206l-25.366-8.416l5.395,26.176l-25.366-8.416l19.972-17.76l-25.366-8.416
								c-8.687-0.293-17.48,1.125-26.266,4.996c-9.771,4.328-18.979,11.129-27.904,19.152l-23.839,24.208l32.884,8.542
								l-23.839,24.208l-9.045-32.75l-23.839,24.208c-8.719,8.2-17.666,15.369-27.114,20.308
								c-8.321,4.338-16.772,7.757-25.258,10.628l-26.473,7.149l19.428,19.351l-26.473,7.148l7.045-26.5l-26.472,7.149
								c-8.925,2.416-17.647,5.111-26.042,8.566c-7.898,3.251-15.817,5.57-23.7,6.91l-24.3-2.453l10.025,22.271l-24.3-2.453
								l14.274-19.818l-24.301-2.453c-7.366-2.923-14.581-6.891-21.589-11.946c-5.201-3.755-10.345-7.292-15.341-10.48
								l-16.785-7.706l1.719,18.39l-16.785-7.706l15.066-10.684l-16.786-7.706c-7.261-1.202-13.079,0.21-16.773,5.224
								c-1.385,1.883-2.729,3.854-4.063,5.805l-4.339,5.588l7.009,0.963l-4.339,5.588l-2.67-6.551l-4.338,5.588
								c-1.845,1.789-3.776,3.159-5.859,3.877c-2.011,0.689-4.122,0.78-6.289,0.416l-5.751-2.624l0.604,6.292l-5.751-2.624
								l5.147-3.668l-5.75-2.624c-1.718-1.174-3.42-2.474-5.085-3.832c-3.548-2.896-6.938-5.765-10.18-8.526l-10.307-8.361
								l-2.088,13.107l-10.308-8.362l12.396-4.745l-10.308-8.362c-4.217-2.944-8.103-5.11-11.697-6.157
								c-7.851-2.271-14.024-0.6-17.61,4.465l0.918,18.811l15.831-10.2l0.918,18.811l-16.749-8.611l0.917,18.811
								C424.135,113.209,426.863,119.104,430.303,125.41z"/>
							
								<radialGradient id="SVGID_22_" cx="2035.2021" cy="4075.5098" r="1041.0918" gradientTransform="matrix(-0.5132 -1.2109 -0.8583 0.724 5593.541 -692.2085)" gradientUnits="userSpaceOnUse">
								<stop  offset="0.043" style="stop-color:#FFC800"/>
								<stop  offset="0.6129" style="stop-color:#FF6C00"/>
								<stop  offset="1" style="stop-color:#FF3400"/>
							</radialGradient>
							<path fill="url(#SVGID_22_)" d="M441.266,125.879c0,0,0.206,3.769,1.109,8.344l3.567,7.43l4.651-6.803l3.566,7.43
								l-8.218-0.626l3.566,7.431c2.1,1.428,4.726,1.732,8.003,0.142c2.496-1.22,5.142-3.94,8.286-7.428l7.824-7.98l-10.823-2.786
								l7.824-7.979l2.999,10.766l7.824-7.98c2.716-2.286,5.71-4.518,9.036-6.581c5.764-3.566,12.893-4.514,21.286-3.365
								l20.567,7.529l-3.764-21.577l20.567,7.529l-16.804,14.047l20.566,7.529c6.15,3.108,12.614,6.602,19.378,10.402
								c4.308,2.418,8.667,4.597,13.049,6.434l14.123,3.058l-4.414-13.76l14.123,3.058l-9.709,10.702l14.123,3.058
								c4.829-0.108,9.6-0.912,14.27-2.55c4.901-1.726,9.688-4.264,14.417-7.332l12.702-10.052l-15.057-5.974l12.702-10.053
								l2.354,16.026l12.702-10.052c4.092-3.513,8.223-7.038,12.434-10.394c8.53-6.792,17.654-10.952,27.18-13.466l30.41-1.621
								L721.08,72.909l30.41-1.621l-13.801,27.146l30.41-1.621c10.204,0.107,20.425-0.118,30.479-1.614
								c10.892-1.639,21.173-6.996,31.151-14.27l25.7-23.131l-32.883-10.691l25.7-23.131l7.183,33.823l25.7-23.131
								c9.283-7.953,18.775-14.796,28.732-19.027c11.532-4.872,23.408-3.981,35.622,0.431l30.674,19.575l1.615-36.352l30.674,19.574
								l-32.289,16.778l30.674,19.574c9.785,7.322,19.749,14.604,29.89,20.951c0,0-2.649-5.141-9.573-13.77l-11.566-12.148
								l-4.737,16.091l-11.566-12.147l16.304-3.943l-11.566-12.148c-3.833-3.491-8.067-7.148-12.735-10.938
								c-4.805-3.899-10.063-8.042-15.829-12.15l-17.364-9.745l0.242,19.911l-17.364-9.746l17.122-10.166l-17.365-9.746
								c-5.945-2.423-12.254-4.533-18.952-6.201c-8.749-2.17-18.193-2.826-28.258-1.761l-26.524,9.674l21.641,18.134l-26.524,9.674
								l4.884-27.808l-26.524,9.674c-7.581,4.559-15.368,9.957-23.34,16.248c-16.152,12.754-31.97,24.505-47.442,35.028
								l-52.735,25.727l48.648,32.806l-52.735,25.728l4.087-58.534l-52.734,25.727c-20.301,4.892-39.807,5.935-58.49,2.407
								c-7.656-1.455-15.238-3.8-22.703-6.397l-22.527-6.898l5.289,22.959l-22.527-6.898l17.238-16.061l-22.528-6.898
								c-8.044-1.006-15.796-0.485-23.182,2.626c-3.587,1.518-6.99,3.682-10.273,6.278L496,109.307l11.656,3.093l-8.507,8.548
								L496,109.307l-8.506,8.547c-2.662,3.025-5.317,6.084-8.006,9.035c-2.665,2.923-5.598,5.312-8.696,7.001l-10.653-0.229
								l5.128,9.34l-10.653-0.23l5.525-9.11l-10.652-0.23C446.689,131.684,443.93,129.199,441.266,125.879z"/>
							
								<radialGradient id="SVGID_23_" cx="2002.6201" cy="2671.1289" r="2424.054" gradientTransform="matrix(-0.5132 -1.2109 -0.8583 0.724 5593.541 -692.2085)" gradientUnits="userSpaceOnUse">
								<stop  offset="0.043" style="stop-color:#FFC800"/>
								<stop  offset="0.6129" style="stop-color:#FF6C00"/>
								<stop  offset="1" style="stop-color:#FF3400"/>
							</radialGradient>
							<path fill="url(#SVGID_23_)" d="M452.51,149.516c0,0,2.152-0.799,7.201-4.466l6.559-5.404l-7.959-2.978l6.558-5.403
								l1.401,8.381l6.558-5.404c1.921-1.729,3.996-3.65,6.232-5.781c2.644-2.516,5.769-4.913,9.315-6.871l11.189-2.266
								l-7.557-8.557l11.188-2.266l-3.632,10.822l11.188-2.265c3.561,0.424,7.292,1.389,11.169,3.019
								c6.098,2.572,12.367,6.562,18.91,11.13l18.271,12.184l1.416-21.916l18.271,12.184l-19.688,9.731l18.271,12.184
								c6.482,3.412,13.274,6.229,20.436,7.961c8.377,2.014,16.805,0.422,25.305-3.648l20.148-16.374l-24.255-9.262l20.148-16.374
								l4.106,25.636l20.147-16.374c5.925-6.106,11.897-12.54,17.926-18.956c6.662-7.082,13.972-12.182,21.743-15.594l26.408-1
								l-14.07-22.37l26.408-1l-12.338,23.37l26.408-1c8.399,2.219,16.867,5.402,25.246,9.304c4.131,1.923,8.263,3.726,12.374,5.314
								l13.037,3.164l-3.778-12.873l13.037,3.164l-9.259,9.709l13.038,3.164c4.554,0.26,9.025-0.042,13.382-1.052
								c4.37-1.018,8.633-2.734,12.795-4.979l10.943-8.295l-12.655-5.329l10.942-8.295l1.713,13.624l10.942-8.294
								c3.304-3.123,6.543-6.409,9.723-9.749c3.186-3.346,6.324-6.692,9.44-9.944l9.996-9.366l-13.109-3.974l9.996-9.365
								l3.113,13.339l9.996-9.366c3.808-2.943,7.648-5.439,11.563-7.315c3.435-1.642,6.954-2.737,10.514-3.326l10.878,1.165
								l-4.431-10.003l10.878,1.165l-6.447,8.838l10.877,1.165c3.37,1.24,6.691,2.866,9.928,4.845c0,0-5.507-4.733-14.817-7.276
								l-16.202,1.578l9.468,13.243l-16.202,1.578l6.734-14.821l-16.202,1.578c-4.503,2.061-9.222,4.9-14.108,8.718
								c-5.025,3.934-10.204,8.767-15.659,13.876l-16.206,13.178l19.516,7.446L870.683,99.3l-3.31-20.624l-16.206,13.178
								c-5.957,3.589-12.292,6.543-19.086,8.447c-8.039,2.241-16.608,2.042-25.652,0.65l-25.214-5.694l7.676,24.683l-25.213-5.694
								l17.537-18.989l-25.213-5.693c-8.347-1.441-16.934-2.287-25.733-1.912c-9.3,0.412-17.919,3.358-26.05,7.765l-21.431,17.004
								l25.442,10.058L686.8,139.484l-4.012-27.062l-21.431,17.005c-7.434,6.467-14.736,12.252-22.144,16.056
								c-6.849,3.504-13.774,4.977-20.71,4.951l-20.175-6.711l4.276,20.827l-20.176-6.71l15.899-14.117l-20.176-6.71
								c-6.193-3.566-12.277-7.521-18.196-11.446c-4.892-3.242-9.722-6.199-14.452-8.766l-15.944-5.141l3.521,16.379l-15.945-5.141
								l12.425-11.238l-15.945-5.141c-5.842-0.114-11.277,1.128-16.187,4.044c-4.147,2.472-7.965,5.818-11.595,9.522l-10.191,11.05
								l14.666,3.301l-10.191,11.051l-4.475-14.352l-10.191,11.051C461.349,145.873,457.114,148.609,452.51,149.516z"/>
						</g>
						<g>
							<path fill="#FFFFFF" d="M1055.609,126.675c-2.345,0.762-4.885,1.199-7.579,1.287l-7.536-1.389l2.565,7.221l-7.536-1.389
								l4.971-5.832l-7.536-1.389c-2.285-0.876-4.616-1.965-6.976-3.277c-2.665-3.276-5.968-7.359-9.932-12.111l-10.316-11.782
								l-5.045,14.825l-10.316-11.782l15.361-3.043l-10.316-11.782c-3.358-3.645-6.944-7.446-10.762-11.378
								c-4.551-4.684-9.512-9.319-14.771-13.454l-18.09-7.633l2.435,19.483l-18.09-7.633l15.655-11.85l-18.09-7.633
								c-6.324-0.023-12.713,1.559-19.033,5.274c-7.603,2.882-15.67,9.575-24.558,17.337l-24.758,16.957l27.064,12.962
								l-24.758,16.957l-2.307-29.919l-24.758,16.957c-9.118,3.185-18.987,4.598-29.753,3.136
								c-6.182-0.849-12.266-2.344-18.268-4.151l-17.762-6.001l3.684,18.383l-17.763-6.001l14.079-12.382l-17.763-6.001
								c-6.172-1.821-12.28-3.214-18.345-3.757c-5.675-0.503-11.262-0.075-16.727,1.122l-15.071,7.212l13.782,9.446l-15.071,7.213
								l1.289-16.659l-15.071,7.213c-4.456,3.262-8.759,6.905-12.887,10.808c-4.113,3.892-8.13,7.871-12.089,11.781l-12.511,11.312
								l16.052,5.178l-12.51,11.313l-3.542-16.491l-12.51,11.312c-4.767,3.547-9.577,6.491-14.503,8.547
								c-4.388,1.826-8.862,2.892-13.38,3.317l-13.572-2.035l5.023,12.772l-13.573-2.035l8.55-10.737l-13.573-2.035
								c-4.269-1.536-8.501-3.424-12.661-5.559c-3.487-2.826-6.841-5.751-10.074-8.719l-9.464-9.378l-3.391,12.885l-9.464-9.378
								l12.854-3.507l-9.465-9.378c-3.199-3.325-6.278-6.547-9.255-9.583c-1.777-1.813-3.479-3.534-5.103-5.148l-5.349-4.885
								l-1.557,7.074l-5.348-4.886l6.904-2.188l-5.348-4.886c-2.348-1.829-4.412-3.106-6.188-3.711
								c-2.328-0.781-4.628,1.125-7.035,4.11l-5.217,6.894l8.579,1.071l-5.218,6.894l-3.361-7.965l-5.218,6.894
								c-2.236,2.312-4.642,4.018-7.277,4.408c-3.047,0.444-6.155-0.013-9.277-1.001l-8.4-4.204l0.56,9.377l-8.399-4.204l7.84-5.173
								l-8.4-4.204c-2.888-1.634-5.706-3.141-8.413-4.195c-6.406-2.486-12.132-2.737-16.707-0.994l-5.2,14.889l15.494-2.941
								l-5.201,14.889l-10.293-11.948l-5.201,14.889c0.87,4.952,2.442,10.433,4.814,16.395c0,0,0.283,0.919,1.007,2.332l1.389,2.126
								l1.146-2.266l1.389,2.125l-2.535,0.141l1.39,2.125c0.502,0.622,1.063,1.259,1.689,1.896c-0.416-0.246-0.8-0.49-1.151-0.729
								l-1.068-0.844l-0.196,1.348l-1.068-0.844l1.265-0.504l-1.069-0.843c-0.639-0.592-0.944-0.978-0.944-0.978
								c0.403,1.139,0.854,2.235,1.353,3.265l2.07,2.833l1.419-3.209l2.07,2.833l-3.489,0.376l2.07,2.834
								c0.951,0.783,1.987,1.346,3.107,1.626c0.615,1.951,1.941,2.929,4.506,2.398l5.049-2.671l-4.837-3.037l5.05-2.67l-0.213,5.707
								l5.05-2.669c1.409-0.988,2.944-2.124,4.617-3.417c2.179-1.467,4.706-3.088,7.61-4.595l8.444-2.627l-6.497-6l8.445-2.627
								l-1.948,8.627l8.445-2.627c2.773-0.305,5.731-0.37,8.882-0.118c5.424,0.441,11.375,2.068,17.898,4.628l16.532,8.382
								l-1.007-18.508l16.532,8.382l-15.525,10.126l16.532,8.383c5.103,2.919,10.446,6.046,16.04,9.32
								c4.968,2.907,10.061,5.744,15.244,8.329l16.381,5.569l-3.367-16.971l16.38,5.568l-13.013,11.402l16.38,5.568
								c5.761,0.828,11.546,0.946,17.316,0.134c5.777-0.819,11.516-2.565,17.253-4.854l16.11-7.931l-14.924-9.986l16.11-7.931
								l-1.187,17.917l16.11-7.931c5.382-2.714,10.827-5.278,16.366-7.396c5.769-2.202,11.673-3.603,17.674-4.394l18.193,0.46
								l-8.698-15.986l18.194,0.46l-9.496,15.526l18.194,0.46c6.002,0.817,12.021,1.842,18.021,2.897
								c5.937,1.043,11.875,1.585,17.738,1.562l17.234-3.91l-12.004-12.971l17.235-3.91l-5.231,16.881l17.234-3.91
								c5.187-2.585,10.145-5.853,14.797-9.864c4.43-3.848,8.646-7.931,12.718-11.98l12.854-11.797L841,122.885l12.854-11.797
								l3.79,17.03l12.854-11.797c5.287-3.646,10.571-6.037,16.034-6.417c5.757-0.388,11.482,1.186,17.208,4.117l13.938,11.147
								l2.686-17.645l13.938,11.148l-16.624,6.497l13.939,11.148c4.168,4.125,8.362,8.447,12.593,12.742
								c3.842,3.899,7.881,7.66,12.05,11.106l14.129,8.089l-0.06-16.281l14.129,8.089l-14.069,8.192l14.13,8.088
								c5.475,1.551,10.923,2.027,16.217,1.093c4.814-0.857,9.504-2.652,14.036-5.074l11.843-9.108l-13.81-5.701l11.843-9.109
								l1.967,14.811l11.843-9.107c3.749-3.593,7.291-7.222,10.597-10.597c2.24-2.287,4.374-4.472,6.384-6.54l6.307-6.615
								l-8.882-2.154l6.307-6.615l2.575,8.769l6.307-6.615c2.979-3.235,5.029-5.615,5.927-6.946
								c1.259-1.874,0.661-0.365-2.935,2.286l-5.021,2.777l4.917,2.96l-5.021,2.777l0.104-5.737l-5.021,2.778
								C1059.375,125.357,1057.581,126.032,1055.609,126.675z"/>
							<g>
								
									<radialGradient id="SVGID_24_" cx="2886.7637" cy="4531.8867" r="709.2812" gradientTransform="matrix(-0.6626 -1.0567 -0.749 0.9348 5607.4961 -423.7388)" gradientUnits="userSpaceOnUse">
									<stop  offset="0" style="stop-color:#F6F6F6"/>
									<stop  offset="0.4731" style="stop-color:#F3F3F3"/>
									<stop  offset="1" style="stop-color:#ECECEC"/>
								</radialGradient>
								<path fill="url(#SVGID_24_)" d="M433.618,152.16c0,0,0.732,1.116,2.24,2.33l2.905,1.37l-0.267-3.202l2.906,1.37l-2.64,1.832
									l2.906,1.369c0.981,0.202,2.056,0.312,3.225,0.291c2.656-0.052,5.654-1.596,9.133-4.245l7.523-6.922l-9.757-3.054
									l7.522-6.923l2.234,9.977l7.522-6.923c2.292-2.25,4.729-4.643,7.324-7.137c1.823-1.75,3.776-3.471,5.856-5.063l6.822-3.566
									l-6.5-4.125l6.822-3.566l-0.322,7.691l6.822-3.566c2.441-0.676,4.992-1.059,7.648-1.063
									c3.528-0.001,7.263,0.692,11.184,1.977l10.132,5.165l-0.593-11.356l10.132,5.165l-9.539,6.191l10.132,5.166
									c3.049,1.988,6.169,4.172,9.354,6.52c4.085,3.012,8.211,6.233,12.403,9.468l12.831,8.851l1.25-15.538l12.831,8.851
									l-14.081,6.687l12.832,8.852c4.618,2.558,9.356,4.729,14.241,6.308c4.863,1.566,9.896,2.145,15.001,1.771l13.934-5.567
									l-11.789-9.282l13.933-5.568l-2.144,14.851l13.933-5.567c3.875-2.827,7.692-6.172,11.407-10.018
									c4.83-5.003,9.536-10.24,14.184-15.409l14.89-14.68l-20.158-5.554l14.889-14.68l5.27,20.234l14.889-14.68
									c6.028-4.468,12.189-7.754,18.621-9.219c6.104-1.38,12.277-1.243,18.49-0.058l17.147,7.072L746.701,86.6l17.146,7.072
									l-14.697,11.313l17.146,7.072c5.434,2.995,10.855,6.134,16.245,9.106c4.893,2.698,9.778,5.065,14.612,7.016l15.804,2.905
									l-5.386-15.14l15.805,2.905l-10.419,12.234l15.805,2.905c5.421-0.486,10.61-1.917,15.485-4.458
									c4.857-2.539,9.451-5.833,13.865-9.597l11.752-12.124l-16.375-4.115l11.752-12.124l4.623,16.239l11.752-12.124
									c3.822-4.276,7.623-8.49,11.474-12.395c6.855-6.945,14.094-11.575,21.528-14.269l25.044,3.21l-9.741-23.293l25.043,3.21
									l-15.302,20.083l25.044,3.21c7.368,4.008,14.521,9.115,21.27,14.943c5.354,4.625,10.562,8.975,15.601,12.957l17.113,10.751
									l0.754-20.196l17.113,10.75l-17.867,9.446l17.114,10.75c7.451,2.87,14.106,3.677,19.805,1.83
									c1.972-0.643,3.766-1.317,5.391-2.001l5.022-2.778l-4.917-2.96l5.021-2.777l-0.104,5.737l5.021-2.778
									c3.595-2.65,4.192-4.16,2.934-2.286c-0.897,1.332-2.949,3.712-5.929,6.948l-6.306,6.614l8.881,2.154l-6.306,6.614
									l-2.575-8.769l-6.307,6.614c-2.01,2.068-4.144,4.253-6.383,6.539c-3.306,3.375-6.848,7.004-10.597,10.597l-11.843,9.107
									l13.81,5.703l-11.844,9.107l-1.966-14.811l-11.843,9.108c-4.532,2.422-9.222,4.217-14.036,5.074
									c-5.294,0.935-10.743,0.458-16.217-1.093l-14.13-8.088l0.061,16.28l-14.13-8.088l14.069-8.192l-14.129-8.089
									c-4.169-3.446-8.208-7.207-12.05-11.106c-3.817-3.875-7.584-7.781-11.325-11.55L920.634,127l-2.976,15.864l-12.252-10.509
									L920.634,127l-12.251-10.51c-4.889-3.063-9.817-5.248-14.838-6.177c-4.582-0.839-9.184-0.231-13.808,1.477l-11.512,7.913
									l12.609,6.013l-11.512,7.913l-1.098-13.926l-11.512,7.913c-3.306,3.084-6.626,6.429-9.962,9.915
									c-3.837,4.011-7.864,7.959-12.089,11.617l-14.344,8.444l14.485,8.2l-14.344,8.444l-0.142-16.645l-14.344,8.444
									c-5.285,1.553-10.807,2.281-16.575,1.931c-6.486-0.4-13.2-1.844-20.124-3.587l-20.026-4.017l6.535,19.352l-20.027-4.017
									l13.492-15.335l-20.026-4.017c-6.641-0.303-13.413,0.2-20.304,1.998c-9.525,2.499-18.715,6.018-27.613,9.844l-27.157,10.991
									l23.097,18.023l-27.157,10.991l4.061-29.015l-27.157,10.991c-9.929,2.283-19.552,2.586-28.961-0.531
									c-8.552-2.848-16.656-6.865-24.383-11.457l-22.115-15.458l-2.329,26.882l-22.115-15.459l24.444-11.423l-22.115-15.458
									c-8.313-5.634-16.238-10.137-23.926-12.229c-4.948-1.338-9.609-1.493-13.986-0.821l-12.408,6.353l11.706,7.57l-12.408,6.352
									l0.702-13.921l-12.408,6.352c-3.961,3.282-7.479,6.64-10.56,9.359c-2.035,1.796-4.002,3.104-5.875,3.974l-6.536-0.998
									l2.404,6.16l-6.537-0.997l4.133-5.163l-6.537-0.996C435.696,156.691,434.49,154.621,433.618,152.16z"/>
								
									<radialGradient id="SVGID_25_" cx="2968.6494" cy="3440.0166" r="987.7878" gradientTransform="matrix(-0.6626 -1.0567 -0.749 0.9348 5607.4961 -423.7388)" gradientUnits="userSpaceOnUse">
									<stop  offset="0" style="stop-color:#F6F6F6"/>
									<stop  offset="0.4731" style="stop-color:#F3F3F3"/>
									<stop  offset="1" style="stop-color:#ECECEC"/>
								</radialGradient>
								<path fill="url(#SVGID_25_)" d="M432.376,147.073c0,0,2,4.214,6.047,7.055l8.789-0.349l-4.696-7.437l8.788-0.349
									l-4.092,7.785l8.787-0.349c2.249-1.413,4.66-3.354,7.234-5.944c3.193-3.212,7.012-6.84,11.428-10.1l14.163-4.771
									l-11.213-9.881l14.164-4.771l-2.951,14.652l14.164-4.771c4.615,0.286,9.513,1.471,14.684,3.85
									c8.128,3.75,16.702,10.023,25.699,16.911l26.138,15.985l0.774-30.629l26.138,15.985l-26.912,14.644l26.138,15.985
									c9.773,2.786,19.882,3.117,30.306-0.572c5.292-1.885,10.324-4.639,15.177-7.93l13.074-11.101l-16.151-5.772l13.075-11.102
									l3.076,16.874l13.075-11.102c4.276-3.969,8.529-7.86,12.831-11.383c3.773-3.088,7.619-5.807,11.509-8.138l13.164-4.79
									l-10.73-9.005l13.164-4.79l-2.434,13.795l13.164-4.79c4.728-0.605,9.432-0.594,14.064,0.069
									c8.401,1.213,16.563,3.525,24.484,6.274l23.797,8.573l-4.474-24.896l23.797,8.573l-19.323,16.322l23.797,8.573
									c8.721,1.991,17.058,2.407,25.011-0.094c7.316-2.315,14.047-6.457,20.421-11.601l16.581-16.799l-22.839-5.96l16.58-16.799
									l6.259,22.759l16.58-16.799c5.767-5.951,11.603-11.396,17.729-15.546c6.703-4.527,13.896-6.176,21.417-5.465l19.687,10.312
									l-0.913-22.205l19.687,10.312l-18.773,11.893l19.686,10.313c5.36,4.667,10.744,9.979,16.107,15.791
									c3.77,4.084,7.359,7.615,10.764,10.658l12.772,7.939l0.489-15.031l12.772,7.939l-13.262,7.092l12.772,7.939
									c6.765,2.016,11.73,1.316,14.765-0.399c2.306-1.31,3.63-2.816,4.05-4.631l-2.272-5.732l-3.828,4.833l-2.272-5.732
									l6.101,0.899l-2.271-5.733c-1.122-1.531-2.438-3.183-3.935-4.969c-3.545-4.227-7.827-9.805-12.962-16.163L997.066,87.96
									l-6.307,19.72l-13.925-15.322l20.231-4.397l-13.924-15.322c-4.825-4.575-10.037-9.135-15.662-13.545
									c-3.044-2.382-6.226-4.586-9.514-6.496l-10.859-3.534l2.369,11.171l-10.858-3.534l8.489-7.637l-10.858-3.534
									c-3.77-0.186-7.581,0.219-11.395,1.347c-4.531,1.346-9.054,3.754-13.619,6.964l-11.319,10.352l14.624,4.627L903.221,79.17
									l-3.305-14.979l-11.319,10.352c-3.404,3.605-6.869,7.399-10.413,11.292c-3.673,4.034-7.446,7.929-11.308,11.542
									l-13.252,9.096l14.503,6.929l-13.252,9.096l-1.251-16.024l-13.252,9.096c-5.146,2.089-10.392,3.289-15.716,3.339
									c-5.452,0.044-10.937-0.907-16.452-2.521l-15.257-6.736l1.795,16.581l-15.257-6.737l13.462-9.844l-15.256-6.736
									c-4.924-2.571-9.872-5.19-14.846-7.636c-4.641-2.28-9.305-4.246-13.944-5.81l-14.872-1.764l5.909,13.762l-14.872-1.764
									l8.963-11.998l-14.872-1.763c-4.959,0.737-9.741,2.271-14.271,4.739c-4.744,2.591-9.247,5.943-13.581,9.79l-11.357,12.325
									l16.353,3.673l-11.356,12.326l-4.996-15.999l-11.356,12.326c-3.612,4.347-7.193,8.692-10.797,12.834
									c-3.05,3.502-6.137,6.786-9.25,9.788l-10.915,7.775l12.191,5.565l-10.916,7.775l-1.275-13.341l-10.915,7.775
									c-4.365,1.895-8.72,2.978-13.027,3.085c-4.1,0.097-8.166-0.526-12.178-1.711l-10.873-5.725l0.479,12.278l-10.873-5.726
									l10.395-6.553l-10.873-5.726c-3.289-2.396-6.509-4.998-9.648-7.7c-5.051-4.35-9.762-8.753-14.16-13.065l-13.414-13.831
									l-5.271,18.532l-13.414-13.831l18.685-4.702l-13.414-13.831c-5.957-5.921-10.962-10.149-15.217-11.599
									c-2.328-0.781-4.628,1.125-7.035,4.11l-5.217,6.894l8.579,1.071l-5.218,6.894l-3.361-7.965l-5.218,6.894
									c-2.236,2.312-4.642,4.018-7.277,4.408c-3.047,0.444-6.155-0.013-9.277-1.001l-8.4-4.204l0.56,9.377l-8.399-4.204
									l7.84-5.173l-8.4-4.204c-2.888-1.634-5.706-3.141-8.413-4.195c-6.406-2.486-12.132-2.737-16.707-0.994l-5.2,14.889
									l15.494-2.941l-5.201,14.889l-10.293-11.948l-5.201,14.889C428.432,135.63,430.005,141.111,432.376,147.073z"/>
								
									<radialGradient id="SVGID_26_" cx="2968.9131" cy="3617.1094" r="871.084" gradientTransform="matrix(-0.6626 -1.0567 -0.749 0.9348 5607.4961 -423.7388)" gradientUnits="userSpaceOnUse">
									<stop  offset="0" style="stop-color:#F6F6F6"/>
									<stop  offset="0.4731" style="stop-color:#F3F3F3"/>
									<stop  offset="1" style="stop-color:#ECECEC"/>
								</radialGradient>
								<path fill="url(#SVGID_26_)" d="M443.217,145.975c0,0-0.754,2.396-1.368,5.53l-0.093,5.644l4.934-2.742l-0.093,5.644
									l-4.841-2.901l-0.092,5.643c0.66,1.914,1.941,3.205,4.19,3.236c1.568,0.015,3.597-1.169,6.432-3.197l5.872-4.303
									l-6.661-2.934l5.872-4.302l0.789,7.235l5.873-4.301c1.843-1.287,3.853-2.643,6.047-4.047
									c4.605-2.944,10.503-5.283,17.597-6.306l18.417,2.748l-6.829-17.324l18.417,2.748l-11.588,14.576l18.417,2.747
									c5.338,2.127,10.962,4.879,16.858,8.355c4.517,2.665,9.066,5.506,13.659,8.333l14.045,7.629l-0.416-15.978l14.045,7.629
									l-13.629,8.349l14.045,7.629c5.004,2.102,10.075,3.777,15.228,4.813c5.06,1.012,10.19,1.083,15.321,0.31l13.97-6.134
									l-12.297-9.031l13.969-6.135l-1.672,15.166l13.969-6.135c3.999-2.904,7.912-6.253,11.702-9.994
									c4.305-4.251,8.531-8.806,12.747-13.401l13.015-13.124l-17.873-4.709l13.015-13.124l4.858,17.833l13.014-13.123
									c4.948-4.106,10.052-7.608,15.402-10.145c5.122-2.422,10.458-3.721,15.941-4.125l16.173,2.912l-5.564-15.462l16.173,2.911
									l-10.608,12.551l16.174,2.912c5.057,1.897,10.132,4.147,15.182,6.601c5.03,2.444,10.059,4.874,15.056,7.096l15.866,4.78
									l-3.793-16.13l15.865,4.779l-12.072,11.351l15.866,4.78c5.645,0.5,11.152,0.107,16.472-1.508
									c5.319-1.624,10.386-4.376,15.283-7.853l12.633-11.718l-16.465-5.081l12.633-11.718l3.832,16.799l12.633-11.718
									c4.012-4.203,8.011-8.405,12.053-12.332c3.731-3.621,7.665-6.685,11.721-9.091l14.25-2.533l-9.318-11.075l14.25-2.533
									l-4.932,13.608l14.251-2.533c4.494,1.165,8.918,3.345,13.173,6.664c5.597,4.375,10.889,9.808,16.019,15.827l13.646,17.952
									l8.724-20.795l13.646,17.951l-22.37,2.844l13.647,17.951c4.674,6.146,9.434,12.058,14.396,17.354
									c0,0-0.559-7.877-4.532-21.045l-8.52-19.762l-12.854,17.259l-8.52-19.762l21.374,2.502l-8.521-19.762
									c-3.264-5.851-7.017-11.984-11.332-18.334c-3.16-4.642-6.775-9.129-10.777-13.072l-14.958-6.993l1.423,16.45l-14.958-6.993
									l13.535-9.457l-14.958-6.993c-5.181,0.114-10.588,1.528-16.159,4.604c-6.958,3.854-14.347,10.29-22.405,17.342
									l-23.457,15.632l25.266,12.498l-23.456,15.632l-1.81-28.13l-23.457,15.632c-8.628,2.881-17.92,4.116-27.995,2.747
									c-5.804-0.796-11.522-2.175-17.171-3.85l-16.669-5.685l3.411,17.277l-16.668-5.685l13.257-11.593l-16.668-5.686
									c-5.741-1.809-11.437-3.306-17.103-4.15c-5.228-0.775-10.406-0.834-15.494-0.258l-14.518,5.188l11.752,9.979l-14.519,5.188
									l2.767-15.167l-14.519,5.188c-4.344,2.649-8.533,5.726-12.533,9.16c-4.132,3.55-8.125,7.312-12.033,11.124l-11.762,11.411
									l15.763,4.481l-11.762,11.41l-4.001-15.891l-11.762,11.411c-4.257,3.771-8.544,7.19-12.936,10.032
									c-3.734,2.413-7.564,4.314-11.452,5.733l-12.635,1.394l7.524,10.244l-12.635,1.394l5.11-11.638l-12.635,1.393
									c-4.198-0.535-8.366-1.543-12.455-2.989c-7.712-2.735-15.169-6.288-22.381-10.108l-21.704-11.481l0.908,24.536
									l-21.703-11.481l20.795-13.055l-21.703-11.482c-8.431-3.277-16.436-4.838-24.031-3.292
									c-3.027,0.621-5.923,1.714-8.698,3.147l-7.385,5.565l8.512,3.613l-7.385,5.565l-1.127-9.178l-7.386,5.565
									c-2.251,2.161-4.414,4.404-6.5,6.616c-1.786,1.894-3.633,3.653-5.505,5.167l-6.867,2.523l5.619,4.687l-6.867,2.522
									l1.248-7.209l-6.867,2.523C447.271,149.496,445.162,148.241,443.217,145.975z"/>
								
									<radialGradient id="SVGID_27_" cx="2923.4922" cy="2513.375" r="1938.8486" gradientTransform="matrix(-0.6626 -1.0567 -0.749 0.9348 5607.4961 -423.7388)" gradientUnits="userSpaceOnUse">
									<stop  offset="0" style="stop-color:#F6F6F6"/>
									<stop  offset="0.4731" style="stop-color:#F3F3F3"/>
									<stop  offset="1" style="stop-color:#ECECEC"/>
								</radialGradient>
								<path fill="url(#SVGID_27_)" d="M443.731,164.188c0,0,1.016,0.736,4.671-0.556l4.277-2.171l-4.02-2.619l4.277-2.171
									l-0.258,4.79l4.277-2.172c1.232-0.758,2.572-1.626,4.031-2.617c2.168-1.473,4.687-3.118,7.587-4.658l8.429-2.723
									l-6.572-5.938l8.429-2.723l-1.856,8.66l8.428-2.723c2.774-0.336,5.735-0.434,8.894-0.211
									c5.455,0.389,11.454,1.993,18.04,4.552l16.655,8.409l-1.045-18.629l16.655,8.409l-15.61,10.22l16.655,8.409
									c5.137,2.934,10.517,6.079,16.149,9.377c6.899,4.037,14.077,7.621,21.424,10.525l23.369,3.645l-8.529-22.061l23.369,3.644
									l-14.84,18.417l23.369,3.644c7.726-0.896,15.391-2.986,22.877-6.517c7.538-3.56,15.206-7.15,22.989-10.447l24.204-6.854
									l-18.037-17.535l24.204-6.854l-6.167,24.389l24.204-6.854c8.307-0.8,16.699-0.621,25.161,0.876
									c8.34,1.479,16.674,2.362,24.874,2.482l24.167-5.356l-16.723-18.251l24.168-5.356l-7.445,23.607l24.167-5.355
									c7.1-3.799,13.8-8.716,19.975-14.921c2.997-3.014,5.934-6.07,8.834-9.053l9.278-8.576l-12.065-3.748l9.278-8.575
									l2.787,12.323l9.279-8.576c3.617-2.685,7.254-4.84,10.958-6.227c3.529-1.316,7.155-1.765,10.809-1.457l9.946,4.327
									l-1.227-10.777l9.946,4.326l-8.72,6.451l9.946,4.327c2.771,2.146,5.48,4.64,8.092,7.43c0,0-4.304-5.888-11.478-10.627
									l-14.923-1.626l6.053,13.737l-14.923-1.626l8.87-12.111l-14.923-1.626c-4.111,1.827-8.397,4.717-12.795,8.983
									c-4.197,4.078-8.646,8.896-13.407,13.721l-15.355,11.239l17.411,7.679l-15.356,11.238l-2.055-18.917l-15.356,11.239
									c-5.887,2.142-12.161,3.021-18.875,1.993c-8.076-1.25-16.532-4.804-25.27-9.028l-24.896-9.941l3.839,26.531l-24.896-9.94
									l21.057-16.59l-24.896-9.941c-8.71-1.18-17.507-0.404-26.313,3.614c-8.103,3.716-15.696,8.46-22.907,13.591l-21.269,16.08
									l24.561,10.379l-21.269,16.08l-3.292-26.459l-21.269,16.08c-8.402,5.231-16.595,8.606-24.901,8.485
									c-7.499-0.122-14.707-1.791-21.669-4.451l-19.065-11.321l-0.272,22.171l-19.064-11.321l19.337-10.85l-19.064-11.322
									c-6.258-4.468-12.355-8.847-18.341-12.561c-4.293-2.661-8.501-4.914-12.595-6.753l-13.844-2.99l4.333,13.483l-13.843-2.99
									l9.51-10.493l-13.843-2.989c-4.979,0.332-9.565,1.596-13.671,3.807c-3.232,1.746-6.229,3.935-9.063,6.306l-8.184,7.428
									l10.525,3.374l-8.185,7.428l-2.341-10.802l-8.184,7.429C450.214,161.511,447.046,163.429,443.731,164.188z"/>
							</g>
						</g>
					</g>
				</g>
			</g>
		</g>
	</g>
	<g display="none">
		<radialGradient id="SVGID_28_" cx="427.1294" cy="157.2803" r="105.1492" gradientUnits="userSpaceOnUse">
			<stop  offset="0" style="stop-color:#D8E2EB"/>
			<stop  offset="0.6397" style="stop-color:#CFD8E0"/>
			<stop  offset="0.6818" style="stop-color:#D6DEE5"/>
			<stop  offset="0.8849" style="stop-color:#F4F6F8"/>
			<stop  offset="1" style="stop-color:#FFFFFF"/>
		</radialGradient>
		<circle display="inline" fill="url(#SVGID_28_)" cx="427.129" cy="157.279" r="105.149"/>
		<circle display="inline" fill="#FFFFFF" cx="437.831" cy="144.364" r="86.561"/>
		<g display="inline">
			<radialGradient id="SVGID_29_" cx="437.8311" cy="144.3643" r="120.9527" gradientUnits="userSpaceOnUse">
				<stop  offset="0.0376" style="stop-color:#008DFF"/>
				<stop  offset="1" style="stop-color:#003FB4"/>
			</radialGradient>
			<path fill="url(#SVGID_29_)" d="M437.832,62.529c-45.195,0-81.838,36.637-81.838,81.836c0,45.193,36.643,81.834,81.838,81.834
				c45.193,0,81.836-36.641,81.836-81.834C519.668,99.166,483.025,62.529,437.832,62.529z M513.832,149.436
				c-2.088,0.043-3.752,1.775-3.701,3.87c0.038,1.737,1.244,3.161,2.852,3.572c-0.308,1.862-0.686,3.702-1.126,5.514l-38.223-12.19
				l-25.855-4.359c0.069-0.443,0.125-0.893,0.135-1.354l26.098,2.744l40.007-2.803C514.018,146.114,513.944,147.777,513.832,149.436
				z M510.149,168.337c-0.073-0.019-0.141-0.055-0.219-0.073c-2.031-0.496-4.083,0.759-4.568,2.796
				c-0.431,1.776,0.47,3.563,2.063,4.313c-0.797,1.782-1.639,3.536-2.564,5.241l-33.935-21.53l-23.866-10.756
				c0.198-0.447,0.339-0.924,0.473-1.402l24.648,8.991l39.558,7C511.276,164.756,510.74,166.559,510.149,168.337z M471.533,212.285
				c-1.104-1.777-3.448-2.313-5.223-1.2c-1.556,0.973-2.162,2.895-1.533,4.55c-1.617,0.611-3.267,1.175-4.939,1.679l-8.997-39.267
				l-9.383-24.401c0.43-0.163,0.826-0.376,1.229-0.593l10.883,23.813l22.86,33.18c-1.544,0.909-3.122,1.767-4.733,2.568
				C471.643,212.503,471.601,212.389,471.533,212.285z M451.63,218.912c-0.616-1.999-2.744-3.117-4.741-2.493
				c-1.702,0.525-2.753,2.146-2.648,3.845c-1.937,0.165-3.895,0.264-5.87,0.276l2.408-40.204l-2.141-26.072
				c0.6-0.049,1.186-0.138,1.749-0.283l4.796,25.72l14.159,37.753c-2.494,0.736-5.042,1.341-7.639,1.82
				C451.678,219.152,451.666,219.032,451.63,218.912z M409.252,210.988c-1.782-0.388-3.542,0.54-4.263,2.139
				c-1.379-0.658-2.729-1.366-4.064-2.107l21.77-33.871l10.881-23.773c0.442,0.209,0.909,0.365,1.388,0.509l-9.139,24.53
				l-7.297,39.67c-2.227-0.583-4.418-1.268-6.563-2.04c0.069-0.177,0.137-0.354,0.179-0.546
				C412.595,213.459,411.296,211.434,409.252,210.988z M370.952,172.496c-0.991-1.508-2.875-2.073-4.5-1.462
				c-0.593-1.593-1.133-3.206-1.62-4.843l39.113-9.005l24.446-9.43c0.165,0.446,0.372,0.864,0.595,1.28l-23.78,11.045
				l-32.973,23.022c-0.993-1.675-1.925-3.385-2.79-5.142c0.146-0.069,0.287-0.131,0.419-0.218
				C371.614,176.602,372.101,174.248,370.952,172.496z M361.915,138.135c0.184,0.015,0.369,0.032,0.563,0.019
				c2.088-0.129,3.674-1.937,3.539-4.026c-0.116-1.773-1.443-3.179-3.12-3.476c0.287-1.595,0.614-3.172,1.004-4.729l38.125,12.161
				l25.874,4.363c-0.073,0.438-0.114,0.893-0.133,1.354l-26.116-2.748l-39.999,2.803
				C361.666,141.932,361.762,140.025,361.915,138.135z M365.831,119.449c0.177,0.061,0.35,0.126,0.542,0.162
				c2.052,0.411,4.047-0.932,4.448-2.986c0.344-1.764-0.595-3.476-2.168-4.183c0.728-1.579,1.498-3.136,2.333-4.654l33.75,21.411
				l23.95,10.794c-0.209,0.445-0.363,0.911-0.506,1.388l-24.699-9.012l-39.456-6.983
				C364.54,123.369,365.158,121.396,365.831,119.449z M404.585,76.567c1.179,1.728,3.545,2.162,5.266,0.977
				c1.5-1.031,2.029-2.959,1.354-4.579c1.548-0.575,3.117-1.101,4.714-1.575l8.903,38.854l9.444,24.564
				c-0.426,0.163-0.824,0.365-1.221,0.578l-10.953-23.968l-22.645-32.861c1.569-0.916,3.167-1.785,4.807-2.592
				C404.344,76.171,404.45,76.375,404.585,76.567z M362.933,158.287c0.167-0.033,0.338-0.057,0.502-0.115
				c1.985-0.658,3.059-2.81,2.392-4.797c-0.563-1.685-2.199-2.701-3.895-2.564c-0.177-2.113-0.287-4.248-0.289-6.409l39.987,2.55
				l26.159-2.046c0.042,0.616,0.125,1.213,0.272,1.793l-25.786,4.829l-37.594,14.148
				C363.983,163.256,363.395,160.795,362.933,158.287z M435.308,134.486l-4.83-25.905l-14.01-37.352
				c2.134-0.622,4.3-1.162,6.506-1.596c0.036,0.229,0.091,0.462,0.171,0.692c0.698,1.967,2.877,2.993,4.843,2.286
				c1.716-0.614,2.716-2.339,2.478-4.077c2.242-0.216,4.509-0.331,6.799-0.346l-2.381,39.762l2.155,26.258
				C436.446,134.256,435.866,134.339,435.308,134.486z M447.435,72.132c1.744,0,3.195-1.183,3.639-2.788
				c1.832,0.32,3.643,0.689,5.426,1.141l-12.367,37.896l-4.552,25.927c-0.474-0.087-0.957-0.133-1.453-0.15l2.651-26.207
				l-2.936-39.777c1.955,0,3.89,0.1,5.809,0.243C443.691,70.474,445.365,72.132,447.435,72.132z M465.528,76.972
				c1.694,0.449,3.41-0.331,4.239-1.78c1.617,0.749,3.206,1.538,4.761,2.394l-21.563,33.551l-10.948,23.924
				c-0.44-0.203-0.909-0.351-1.379-0.49l9.197-24.697l7.222-39.25c1.955,0.508,3.876,1.107,5.768,1.766
				C462.32,74.395,463.521,76.445,465.528,76.972z M481.787,86.277c1.529,0.867,3.398,0.549,4.57-0.649
				c1.776,1.464,3.48,3.018,5.114,4.638l-29.99,26.321l-17.128,19.985c-0.435-0.369-0.888-0.702-1.379-0.993l15.137-21.557
				l16.912-36.149c1.818,1.019,3.603,2.101,5.33,3.263C479.339,82.954,479.974,85.252,481.787,86.277z M495.131,99.421
				c1.262,1.234,3.151,1.398,4.592,0.534c1.139,1.582,2.231,3.198,3.246,4.868l-35.521,18.311l-21.426,15.221
				c-0.264-0.365-0.551-0.717-0.862-1.046l20.469-16.529l26.247-30.113c1.097,1.105,2.148,2.253,3.183,3.423
				C493.612,95.585,493.643,97.968,495.131,99.421z M504.681,115.541c0.905,1.527,2.717,2.17,4.343,1.677
				c0.614,1.612,1.186,3.244,1.689,4.906l-38.994,8.977l-24.497,9.451c-0.175-0.441-0.396-0.854-0.628-1.264l23.863-11.085
				l32.794-22.894c0.98,1.637,1.893,3.319,2.751,5.032c-0.005,0.004-0.007,0.004-0.012,0.006
				C504.191,111.416,503.605,113.746,504.681,115.541z M512.55,129.414c-0.059,0.015-0.111,0.015-0.164,0.03
				c-2.015,0.576-3.177,2.678-2.595,4.688c0.5,1.738,2.133,2.835,3.86,2.733c0.226,2.31,0.346,4.651,0.358,7.015l-39.979-2.548
				l-26.176,2.05c-0.055-0.614-0.152-1.207-0.308-1.785l25.838-4.84l37.48-14.104C511.522,124.869,512.091,127.122,512.55,129.414z
				 M388.366,86.438c0.135,0.159,0.274,0.314,0.435,0.454c1.582,1.369,3.979,1.185,5.347-0.399c1.158-1.354,1.191-3.288,0.198-4.678
				c1.497-1.044,3.032-2.037,4.608-2.974l18.047,35.557l15.095,21.529c-0.412,0.281-0.793,0.612-1.156,0.952l-16.717-20.326
				l-30.347-25.983C385.314,89.131,386.822,87.76,388.366,86.438z M383.486,90.979l26.584,29.757l20.125,16.946
				c-0.365,0.426-0.696,0.869-0.987,1.348l-21.615-14.991l-36.331-16.733c1.065-1.909,2.197-3.772,3.415-5.576
				c0.168,0.12,0.344,0.236,0.538,0.329c1.875,0.919,4.147,0.131,5.06-1.75c0.789-1.626,0.31-3.54-1.053-4.619
				C380.58,94.058,382.001,92.491,383.486,90.979z M379.54,193.407c0.17-0.138,0.335-0.276,0.483-0.44
				c1.4-1.551,1.271-3.952-0.289-5.353c-1.363-1.222-3.364-1.28-4.783-0.23c-0.854-1.246-1.675-2.521-2.458-3.819l35.721-18.412
				l21.327-15.151c0.26,0.373,0.56,0.715,0.867,1.05l-20.376,16.455l-26.447,30.346C382.178,196.424,380.831,194.941,379.54,193.407
				z M383.948,198.23l30.231-26.534l17.037-19.873c0.433,0.375,0.884,0.719,1.375,1.017l-15.042,21.424l-17.073,36.499
				c-2.143-1.208-4.222-2.519-6.232-3.923c0.116-0.158,0.23-0.318,0.325-0.5c0.959-1.86,0.219-4.148-1.645-5.098
				c-1.618-0.83-3.545-0.383-4.653,0.965C386.784,200.931,385.333,199.617,383.948,198.23z M431.465,220.271
				c0.009-0.133,0.027-0.262,0.021-0.398c-0.082-2.086-1.852-3.712-3.946-3.619c-1.773,0.073-3.201,1.36-3.537,3.028
				c-1.679-0.311-3.343-0.656-4.977-1.071l12.504-38.303l4.514-25.741c0.48,0.086,0.975,0.133,1.474,0.148l-2.634,26.021
				l2.968,40.219c-0.007,0-0.014,0-0.02,0C435.688,220.555,433.567,220.443,431.465,220.271z M487.739,201.905
				c-0.112-0.138-0.218-0.276-0.351-0.401c-1.522-1.436-3.927-1.354-5.356,0.175c-1.287,1.371-1.347,3.442-0.232,4.889
				c-1.599,1.131-3.233,2.213-4.916,3.222l-18.225-35.901l-15.011-21.404c0.412-0.294,0.805-0.616,1.169-0.964l16.619,20.215
				l30.577,26.182C490.643,199.302,489.211,200.627,487.739,201.905z M492.379,197.535L465.59,167.55l-20.03-16.868
				c0.356-0.43,0.684-0.883,0.968-1.373l21.542,14.937l36.529,16.828c-1.12,2.036-2.326,4.021-3.623,5.935
				c-0.12-0.088-0.241-0.184-0.38-0.259c-1.837-0.997-4.14-0.308-5.134,1.537c-0.885,1.64-0.436,3.634,0.977,4.757
				C495.148,194.595,493.787,196.088,492.379,197.535z"/>
		</g>
	</g>
</g>
</svg>
